<?xml version="1.0" encoding="utf-8"?>
<!-- Generator: Adobe Illustrator 22.1.0, SVG Export Plug-In . SVG Version: 6.00 Build 0)  -->
<svg version="1.1" id="Layer_1" xmlns="http://www.w3.org/2000/svg" xmlns:xlink="http://www.w3.org/1999/xlink" x="0px" y="0px"
	 viewBox="0 0 1532.9 380.3" style="enable-background:new 0 0 1532.9 380.3;" xml:space="preserve">
<style type="text/css">
	.st0{fill:#1A2024;}
	.st1{fill:#FFFFFF;}
	.st2{opacity:0.25;fill:#FFFFFF;enable-background:new    ;}
	.st3{opacity:0.45;fill:#FFFFFF;enable-background:new    ;}
	.st4{opacity:0.15;fill:#FFFFFF;enable-background:new    ;}
</style>
<rect class="st0" width="1532.9" height="380.3"/>
<path class="st1" d="M126.5,308.3H71.1V72.5l0,0v-0.1c0.1-0.2,0.2-0.5,27.8-1.8c13.6-0.6,27.4-1.2,27.5-1.2h0.1V308.3z M71.2,308.1
	h55V69.7c-18.5,0.7-53.5,2.2-55,2.8V308.1z"/>
<path class="st1" d="M126.7,308.5H70.8V72.4c0.1-0.3,0.3-0.7,28-1.9c11.8-0.5,23.9-1,27.3-1.2h0.5v239.2H126.7z M71.5,307.9h54.6
	v-238c-20.9,0.8-52,2.2-54.6,2.8V307.9z"/>
<path class="st1" d="M154.3,309.5h-28v-240l28,4.3V309.5z M126.4,309.3h27.7V74l-27.7-4.3V309.3z"/>
<path class="st1" d="M154.7,309.9h-28.9V69l28.9,4.5V309.9z M126.9,308.9h26.8V74.4l-26.8-4.2V308.9z"/>
<path class="st1" d="M154.5,309.7H126V69.3l28.5,4.4V309.7z M126.7,309.1h27.2V74.2L126.7,70V309.1z"/>
<path class="st1" d="M154.9,310.1h-29.3V68.8l29.3,4.5V310.1z M127.1,308.7h26.4V74.6l-26.4-4.1C127.1,70.5,127.1,308.7,127.1,308.7
	z"/>
<path class="st1" d="M228,309.9V76.7h0.1l55.8-3.4v236.3h-0.1L228,309.9z M228.2,76.9v232.8l55.5-0.3V73.6L228.2,76.9z"/>
<path class="st1" d="M227.6,310.4v-234h0.5l56.2-3.4v237h-0.5L227.6,310.4z M228.6,77.3v232l54.6-0.3V74L228.6,77.3z"/>
<path class="st1" d="M227.8,310.1V76.5h0.3l56-2.9v236.1h-0.3L227.8,310.1z M228.4,77.1v232.4l55.1-0.3V73.8L228.4,77.1z"/>
<path class="st1" d="M227.4,310.6V76.1h0.7l56.5-2.9v237h-0.7L227.4,310.6z M228.9,77.6v231.5l54.2-0.3V74.2L228.9,77.6z"/>
<path class="st1" d="M309.4,308.3h-25.6v-235h0.1l25.5,4.8V308.3z M283.9,308.1h25.3V78.3l-25.3-4.7V308.1z"/>
<path class="st1" d="M309.6,308.5h-26.1V73.1l0.4,0.1l25.7,4.8V308.5z M284.1,307.9h24.8V78.5l-24.8-4.7V307.9z"/>
<path class="st1" d="M284,308.3h-21.8v-0.1l-109-235.8l21.9,3.5l0,0L284,308.3z M262.3,308.1h21.4L175,76.1l-21.4-3.4L262.3,308.1z"
	/>
<path class="st1" d="M284.6,308.8h-22.7l-0.1-0.3L152.5,71.9l22.9,3.7l0.1,0.2L284.6,308.8z M262.6,307.8h20.5L174.7,76.5l-20.4-3.3
	L262.6,307.8z"/>
<path class="st1" d="M284.3,308.5H262l-0.1-0.2L152.8,72.2l22.4,3.6l0.1,0.1L284.3,308.5z M262.4,307.9h20.9L174.8,76.3L153.9,73
	L262.4,307.9z"/>
<path class="st1" d="M285,309h-23.2l-0.2-0.4L152.1,71.7l23.4,3.8l0.1,0.3L285,309z M262.7,307.5h20L174.5,76.7l-20-3.2L262.7,307.5
	z"/>
<path class="st1" d="M263.5,309.9h-55.8v-0.1L94.5,70.9h0.2l31.7-1.3l27.9,4.3l0,0L263.5,309.9z M207.9,309.7h55.3L154.1,74
	l-27.8-4.3l-31.6,1.4L207.9,309.7z"/>
<path class="st1" d="M264.2,310.4h-56.7l-0.1-0.2L93.8,70.5h0.8l31.7-1.3l28.2,4.4l0.1,0.2L264.2,310.4z M208.2,309.4h54.4
	l-108.7-235l-27.6-4.3l-30.9,1.3L208.2,309.4z"/>
<path class="st1" d="M263.8,310.1h-56.2l-0.1-0.2L94.2,70.7h0.5l31.7-1.3l28.1,4.3l0.1,0.1L263.8,310.1z M208,309.5h54.9L154,74.2
	l-27.7-4.3l-31.2,1.3L208,309.5z"/>
<path class="st1" d="M264.5,310.6h-57.1l-0.2-0.4L93.5,70.3h1.1l31.7-1.3l28.4,4.4l0.2,0.3L264.5,310.6z M208.3,309.1h54L153.7,74.6
	l-27.5-4.3l-30.5,1.3L208.3,309.1z"/>
<path class="st1" d="M243.1,309.9H228V76.7h0.1l15-0.9V309.9z M228.2,309.7h14.7V76l-14.7,0.9V309.7z"/>
<path class="st1" d="M243.5,310.4h-15.9v-234l15.9-1V310.4z M228.7,309.4h13.8V76.5l-13.8,0.8V309.4z"/>
<path class="st1" d="M243.3,310.1h-15.5V76.5h0.3l15.2-0.7V310.1z M228.4,309.5h14.2V76.2l-14.2,0.9V309.5z"/>
<path class="st1" d="M243.7,310.6h-16.3V76.1h0.7l15.6-0.7V310.6z M228.9,309.1h13.4V76.7l-13.4,0.8V309.1z"/>
<polygon class="st1" points="135,309.7 154.1,309.7 154.1,188.9 144.7,110 144.6,110.2 153.9,188.9 153.9,309.5 135.3,309.5 
	135.3,84.4 135,82.2 "/>
<polygon class="st1" points="154.5,310.1 134.6,310.1 134.6,82.2 135.5,82.2 135.7,84.4 135.7,309.1 153.5,309.1 153.5,188.9 
	144.1,110.1 145,108.8 154.5,188.9 "/>
<polygon class="st1" points="154.5,188.6 145.1,109.4 144.9,109.7 154.3,188.6 154.3,309.3 134.8,309.3 134.8,81.2 135,81.1 
	135.2,80.9 134.6,81 134.6,309.5 154.5,309.5 "/>
<polygon class="st1" points="154.9,309.9 134.2,309.9 134.2,80.6 136.1,80.4 135.3,81.5 135.3,308.9 153.9,308.9 153.9,188.6 
	144.5,109.6 145.3,108.3 154.9,188.6 "/>
<polygon class="st1" points="154.1,188.7 154.1,309.3 135,309.3 135,82.2 135,81.1 134.8,81.2 134.8,309.5 154.3,309.5 154.3,188.7 
	144.9,109.7 144.7,109.9 "/>
<polygon class="st1" points="154.7,309.9 134.4,309.9 134.4,80.8 135.5,80.7 135.5,82.2 135.5,308.9 153.7,308.9 153.7,188.8 
	144.3,109.8 145.2,108.6 154.7,188.7 "/>
<path class="st1" d="M76.5,76.6L76.5,76.6L76.5,76.6l-5.6-4.2h0.3l55.2-2.8l28.3,4.4l-28.3,2.7L76.5,76.6L76.5,76.6z M76.5,76.4
	h49.8l26.7-2.5l-26.7-4.2l-54.9,2.8L76.5,76.4z"/>
<path class="st1" d="M76.5,77h-0.2l-6.7-5l56.7-2.9l31.6,4.9l-31.6,3H76.5z M76.7,76h49.6l23.3-2.2l-23.4-3.6L72.5,73L76.7,76z"/>
<path class="st1" d="M76.5,76.8L76.5,76.8h-0.2l-6.1-4.6H71l55.2-2.8l30,4.6l-29.9,2.8H76.5z M76.7,76.2h49.7l25-2.4l-25.1-3.9
	L72,72.7L76.7,76.2z"/>
<path class="st1" d="M76.5,77.2h-0.2l-0.1-0.1l-7.1-5.3l57.3-3l33.3,5.2l-33.3,3.2L76.5,77.2z M76.8,75.8h49.6l21.6-2.1l-21.7-3.4
	L73.2,73L76.8,75.8z"/>
<path class="st1" d="M87.1,308.3h-16V72.4h16V308.3z M71.2,308.1h15.7V72.6H71.2V308.1z"/>
<path class="st1" d="M87.5,308.8H70.6V72h16.9V308.8z M71.7,307.8h14.8V73H71.7V307.8z"/>
<path class="st1" d="M87.3,308.5H70.8V72.2h16.5V308.5z M71.5,307.9h15.2V72.8H71.5V307.9z"/>
<path class="st1" d="M87.7,309H70.4V71.8h17.3V309z M71.9,307.5h14.4V73.2H71.9V307.5z"/>
<path class="st1" d="M243,80.8L243,80.8l-12-4l52.9-3.4l0,0l23.4,5L243,80.8z M232,76.9l11,3.7l62.7-2.4l-21.8-4.6L232,76.9z"/>
<path class="st1" d="M242.9,81.2l-14.1-4.7l55.1-3.5h0.1l26.7,5.7L242.9,81.2z M234.1,77.2l8.9,3l59.2-2.2l-18.4-4L234.1,77.2z"/>
<path class="st1" d="M243,81L243,81l-13.1-4.3l1.1-0.1l52.8-3l0,0l21.9,5L243,81z M233.1,77l10,3.3L304,78l-20.2-3.3L233.1,77z"/>
<path class="st1" d="M242.9,81.4l-0.1-0.1l-15-5l3.2-0.2l52.8-3h0.1l17.8,4.1l2.4,0.4v0.2l4.8,1.1L242.9,81.4z M235.4,77.3l7.8,2.6
	l56.7-2.1l-16.1-2.6L235.4,77.3z M283.7,74l-29.5,1.7l29.6-1.3l4.8,0.8L283.7,74z"/>
<path class="st1" d="M309.4,308.3h-18V78.8h0.1l17.9-0.7V308.3z M291.6,308.1h17.6V78.4L291.6,79V308.1z"/>
<path class="st1" d="M309.8,308.8H291V78.4l18.8-0.7V308.8z M292,307.8h16.7v-229L292,79.4V307.8z"/>
<path class="st1" d="M309.6,308.5h-18.4V78.6l18.4-0.6V308.5z M291.8,307.9h17.1V78.6l-17.1,0.6V307.9z"/>
<path class="st1" d="M310,309h-19.2V78.2l19.2-0.7V309z M292.2,307.5h16.3V79l-16.3,0.6V307.5z"/>
<path class="st1" d="M128.3,310.2H69.2V70.6l59.1-3.1V310.2z M73.1,306.3h51.3V71.7l-51.3,2.7V306.3z"/>
<path class="st1" d="M311.2,310.2l-50,0.4L153.5,77l-25.2-4.9v-4.5l27.2,4.6l107.9,234.1h18.5l1.2-233.1l28.1,4.3L311.2,310.2z
	 M285.8,306.3h21.5V80.8L287,77.7L285.8,306.3z"/>
<rect x="155.9" y="57.8" transform="matrix(0.902 -0.4318 0.4318 0.902 -66.8774 86.0194)" class="st1" width="0.2" height="265"/>
<polygon class="st1" points="212.9,310.4 212.7,310.1 98.1,70.6 99,70.2 99.2,70.6 213.8,310 "/>
<polygon class="st1" points="212.9,310 98.4,70.7 98.9,70.5 99,70.6 213.5,309.9 "/>
<polygon class="st1" points="212.7,310.4 97.8,70.5 99.1,69.9 99.4,70.5 214.2,310.2 "/>
<rect x="203.1" y="299.8" class="st1" width="76.8" height="0.2"/>
<rect x="202.7" y="299.4" class="st1" width="77.7" height="1"/>
<rect x="202.9" y="299.6" class="st1" width="77.3" height="0.6"/>
<rect x="202.5" y="299.2" class="st1" width="78.1" height="1.5"/>
<rect x="231.5" y="76.8" class="st1" width="0.2" height="233"/>
<rect x="231.1" y="76.4" class="st1" width="1" height="233.9"/>
<rect x="231.3" y="76.6" class="st1" width="0.6" height="233.4"/>
<rect x="230.9" y="76.2" class="st1" width="1.4" height="234.3"/>
<rect x="247.1" y="80.7" class="st1" width="0.2" height="229.1"/>
<rect x="246.7" y="80.2" class="st1" width="1" height="229.9"/>
<rect x="246.9" y="80.5" class="st1" width="0.6" height="229.5"/>
<rect x="246.5" y="80" class="st1" width="1.4" height="230.3"/>
<polygon class="st1" points="279.9,306.9 171,75.6 171.2,75.5 280,306.8 "/>
<polygon class="st1" points="279.7,307.4 279.5,307 170.5,75.4 171.4,75 171.6,75.3 280.6,307 "/>
<polygon class="st1" points="279.8,307.1 279.7,306.9 170.8,75.5 171.5,75.7 171.4,75.4 280.3,306.9 "/>
<polygon class="st1" points="279.6,307.7 279.3,307.1 170,74.9 171.6,75.3 171.6,75.3 171.8,75.2 171.8,75.3 280.9,307.1 "/>
<rect x="89.7" y="71.6" class="st1" width="0.2" height="236.7"/>
<rect x="89.2" y="71.1" class="st1" width="1" height="237.5"/>
<rect x="89.4" y="71.4" class="st1" width="0.6" height="237.1"/>
<rect x="89" y="70.9" class="st1" width="1.4" height="237.9"/>
<rect x="150.7" y="74.9" class="st1" width="0.2" height="234.5"/>
<rect x="150.3" y="74.4" class="st1" width="1" height="235.3"/>
<rect x="150.5" y="74.6" class="st1" width="0.6" height="234.9"/>
<rect x="150.1" y="74.2" class="st1" width="1.4" height="235.7"/>
<rect x="138.5" y="71.6" class="st1" width="0.2" height="237.9"/>
<rect x="138.1" y="71.1" class="st1" width="1" height="238.7"/>
<rect x="138.3" y="71.4" class="st1" width="0.6" height="238.3"/>
<rect x="137.9" y="70.9" class="st1" width="1.4" height="239.1"/>
<polygon class="st1" points="242.7,92.4 242.7,92.4 227.9,87.2 227.9,87 242.8,92.2 309,89.4 309,89.6 "/>
<polygon class="st1" points="242.7,92.8 242.6,92.7 227.3,87.5 227.7,86.5 242.8,91.7 309.4,89 309.5,90 "/>
<polygon class="st1" points="242.7,92.6 242.7,92.6 227.9,87.5 227.8,86.8 242.8,92 309.2,89.2 309.3,89.8 309,89.8 "/>
<polygon class="st1" points="242.6,93 242.5,92.9 227.5,87.8 227.3,86.2 242.9,91.5 309.6,88.8 309.7,90.2 309.1,90.3 "/>
<rect x="87" y="76.4" class="st1" width="39.7" height="0.2"/>
<rect x="86.8" y="76.2" class="st1" width="40.2" height="0.6"/>
<rect x="87" y="299.8" class="st1" width="67.2" height="0.2"/>
<rect x="86.6" y="299.4" class="st1" width="68.1" height="1"/>
<rect x="86.8" y="299.6" class="st1" width="67.6" height="0.6"/>
<rect x="86.4" y="299.2" class="st1" width="68.5" height="1.5"/>
<polygon class="st1" points="262.9,309.9 257.9,309.9 257.9,309.9 150.7,75 144.8,74.5 144.8,309.5 140.5,309.5 140.5,309.3 
	144.6,309.3 144.6,74.3 144.7,74.3 150.9,74.8 150.9,74.9 258,309.7 262.9,309.7 "/>
<polygon class="st1" points="263.3,310.4 257.6,310.4 257.5,310.1 150.5,75.4 145.2,74.9 145.2,309.9 140.1,309.9 140.1,308.9 
	144.2,308.9 144.2,73.8 144.7,73.9 151.1,74.4 151.2,74.7 258.3,309.3 263.3,309.3 "/>
<polygon class="st1" points="263.1,310.1 257.8,310.1 257.7,310 150.6,75.2 145,74.7 145,309.7 140.3,309.7 140.3,309.1 
	144.4,309.1 144.4,74.1 144.7,74.1 151,74.6 151.1,74.8 258.2,309.5 263.1,309.5 "/>
<polygon class="st1" points="263.5,310.6 257.5,310.6 257.3,310.1 150.3,75.6 145.4,75.2 145.4,310.1 139.9,310.1 139.9,308.7 
	144,308.7 144,73.6 144.7,73.6 151.3,74.2 151.5,74.6 258.4,309.1 263.5,309.1 "/>
<polygon class="st1" points="76.6,308.2 76.5,308.2 76.5,76.4 126.4,76.4 126.4,76.6 76.6,76.6 "/>
<polygon class="st1" points="77.1,308.6 76,308.6 76,76 126.8,76 126.8,77 77.1,77 "/>
<polygon class="st1" points="76.8,308.4 76.2,308.4 76.2,76.2 126.6,76.2 126.6,76.8 76.8,76.8 "/>
<polygon class="st1" points="77.3,308.9 75.8,308.9 75.8,75.8 127,75.8 127,77.2 77.3,77.2 "/>
<polygon class="st1" points="296.7,308.2 296.5,308.2 296.5,84.4 243,86.6 243,86.6 228.1,82 228.2,81.8 243,86.4 296.7,84.2 "/>
<polygon class="st1" points="297.1,308.6 296,308.6 296,84.9 242.9,87.1 242.8,87 227.6,82.3 227.9,81.3 243.1,86 297.1,83.8 "/>
<polygon class="st1" points="296.9,308.4 296.3,308.4 296.3,84.6 243,86.9 242.9,86.8 228.2,82.3 228,81.6 243,86.2 296.9,84 "/>
<polygon class="st1" points="297.3,308.9 295.8,308.9 295.8,85.1 242.9,87.3 242.8,87.2 227.9,82.6 227.4,80.9 243.1,85.8 
	297.3,83.6 "/>
<polygon class="st1" points="242.9,309.9 134.9,80.8 76.5,80.8 76.5,80.6 135,80.6 135,80.6 243.1,309.8 "/>
<polygon class="st1" points="242.7,310.4 242.5,310 134.6,81.2 76.1,81.2 76.1,80.1 135.3,80.1 135.4,80.4 243.6,310 "/>
<polygon class="st1" points="242.7,310 242.6,309.8 134.8,81 76.3,81 76.3,80.4 135.1,80.4 135.2,80.5 243.2,309.7 "/>
<polygon class="st1" points="242.5,310.5 242.2,309.9 134.5,81.4 75.9,81.4 75.9,79.9 135.4,79.9 135.6,80.3 243.8,309.9 "/>
<polygon class="st1" points="239.2,309.9 134.9,87.2 76.5,87.2 76.5,87 135,87 135,87 239.3,309.8 "/>
<polygon class="st1" points="239,310.4 238.8,310 134.6,87.6 76.1,87.6 76.1,86.5 135.3,86.5 135.4,86.8 239.9,310 "/>
<polygon class="st1" points="239,310 238.9,309.8 134.8,87.4 76.3,87.4 76.3,86.8 135.1,86.8 135.2,86.9 239.5,309.7 "/>
<polygon class="st1" points="238.8,310.5 238.5,310 134.5,87.8 75.9,87.8 75.9,86.3 135.4,86.3 135.6,86.8 240.1,309.9 "/>
<rect x="134.8" y="70.1" class="st1" width="0.2" height="17"/>
<rect x="134.4" y="69.7" class="st1" width="1" height="17.8"/>
<rect x="134.6" y="69.9" class="st1" width="0.6" height="17.4"/>
<rect x="134.2" y="69.5" class="st1" width="1.4" height="18.2"/>
<path class="st1" d="M386,134.7c2.8-3.2,4.3-7.3,4.3-11.6c0-4.2-1.5-8.2-3.9-10.6c-2.4-2.2-5.4-3.7-8.7-4.2l-3-0.6v-0.2l3-0.9
	c2.4-0.5,4.5-1.7,6.2-3.5c2.5-2.5,3.8-6,3.7-9.6c0-4.2-1.5-8.2-3.9-10.6c-3.8-3.8-9.4-4.3-13.9-4.3h-25.5v61.1h24.6
	C372.6,139.8,381,139.8,386,134.7z M349.5,105.2V82.8h19.3c4.5,0,8.4,1.2,10.6,3.3c2,2.2,3.1,5,3,8c0.1,3.2-1.1,6.3-3.3,8.6
	c-3.4,3.3-8.5,3.3-10.9,3.3h-18.7V105.2z M350.2,135.7h-0.8v-25.6h19.1c2.5,0,8.7,0.3,12,2.7c2.8,2,4.4,5.6,4.4,10
	c0,4-1.5,7.7-3.9,9.8s-6.7,3.1-12.4,3.1H350.2z"/>
<polygon class="st1" points="453.9,135.7 417,135.7 416.3,135.7 416.3,134.9 416.3,111 416.3,110.2 417,110.2 449.8,110.2 
	449.8,106.1 417,106.1 416.3,106.1 416.3,105.3 416.3,83.6 416.3,82.8 417,82.8 452.9,82.8 452.9,78.7 411.2,78.7 411.2,139.8 
	453.9,139.8 "/>
<path class="st1" d="M492.4,141.5c7.7,0,13.4-1.7,17.2-5.2c3.3-3,5.1-7.6,5.1-12.9c0.2-4.1-1.4-8.1-4.3-11
	c-3.5-3.3-8.9-4.9-16.1-6.3l-5.9-1.2c-4.1-0.8-8.8-2-11.5-4.8c-1.7-1.8-2.7-4.3-2.6-6.8c0-4.1,2.1-7.8,5.5-9.9
	c4-2.4,9.8-2.5,10.9-2.5c3.2,0,9.2,0.5,12.9,3.9c2.3,2.3,3.8,5.3,4.3,8.5h5.1c-0.5-4.1-2.3-8-5.1-10.9c-2.6-2.5-7.6-5.5-16.5-5.5
	c-3.6,0-10.3,0.5-15.2,3.6c-4.6,2.9-7.3,8-7.2,13.4c-0.1,3.5,1.2,6.8,3.5,9.4c3.7,4,9.8,5.5,15.3,6.5l6.3,1.2
	c2.7,0.5,9.3,1.9,12.4,5.2c4.3,4.9,3.9,12.4-0.7,16.9c-2.9,2.8-8,4.4-13.8,4.4c-6.2,0-11.9-2-15.1-5.3c-2.7-2.8-4.3-6.6-4.3-10.5
	h-5.2c0.1,5.1,2.1,10,5.6,13.6C478.3,140.8,486.2,141.5,492.4,141.5z"/>
<polygon class="st1" points="572.9,82.8 572.9,78.7 526.2,78.7 526.2,82.8 546.2,82.8 547,82.8 547,83.6 547,139.8 552.1,139.8 
	552.1,83.6 552.1,82.8 552.9,82.8 "/>
<path class="st1" d="M390.1,169c-3.4-3.2-9.6-7-19.7-7s-16.2,3.9-19.5,7.2c-2.7,2.7-8.9,10.5-8.9,25.2c0,15.1,6.1,22.8,8.7,25.4
	c4.8,4.6,11.5,7,20.1,7c5.4,0,13.2-0.7,19.4-6.9c3.4-3.3,9.1-10.9,9.1-25.6C399.4,180.5,394.4,172.9,390.1,169z M386.7,216.6
	c-4.2,4.2-9.9,6.4-15.9,6.2c-6.5,0-12.3-2.2-16.1-6.1c-4.6-4.7-7.2-12.6-7.2-21.8c0-13.8,5.1-20.6,8.2-23.4c3.9-3.5,9-5.3,15.1-5.3
	s11,1.7,14.8,5.2c3.1,2.8,8.3,9.6,8.3,23.3C393.9,204.2,391.5,211.6,386.7,216.6L386.7,216.6z"/>
<polygon class="st1" points="424.9,196.7 424.9,195.9 425.7,195.9 454.9,195.9 454.9,191.8 425.7,191.8 424.9,191.8 424.9,191 
	424.9,168.8 424.9,168 425.7,168 459,168 459,163.9 419.8,163.9 419.8,225 424.9,225 "/>
<polygon class="st1" points="510.4,195.9 510.4,191.8 481.1,191.8 480.3,191.8 480.3,191 480.3,168.8 480.3,168 481.1,168 
	514.4,168 514.4,163.9 475.3,163.9 475.3,225 480.3,225 480.3,196.7 480.3,195.9 481.1,195.9 "/>
<rect x="530.7" y="163.9" class="st1" width="5.1" height="61.1"/>
<path class="st1" d="M604.6,206.1c-0.4,4.4-2.4,8.5-5.6,11.5c-3.8,3.5-8.8,5.3-14,5.1c-7.8,0-12.6-3.2-15.3-5.9
	c-7.1-6.9-7.9-18.8-7.9-23.5c0-9.3,2.6-16.8,7.6-21.6c5.3-5.1,11.4-5.7,15.5-5.7c7.8,0,12.2,2.9,14.5,5.2c2.5,2.7,4.2,6.1,4.6,9.8
	h5.2c-0.4-4.8-2.4-9.3-5.8-12.7c-4.1-4-11.2-6.4-19.1-6.4s-14.5,2.5-19.5,7.4c-7,7-8.5,17.4-8.5,25c0,6,1.1,17.3,8.5,25
	c6.4,6.7,14,7.6,19.8,7.6s12.7-0.8,18.3-6.4c3.7-3.9,6.2-9,6.9-14.4L604.6,206.1z"/>
<polygon class="st1" points="633.9,220.9 633.9,220.1 633.9,196.1 633.9,195.4 634.7,195.4 667.4,195.4 667.4,191.3 634.7,191.3 
	633.9,191.3 633.9,190.5 633.9,168.8 633.9,168 634.7,168 670.5,168 670.5,163.9 628.9,163.9 628.9,225 671.6,225 671.6,220.9 
	634.7,220.9 "/>
<path class="st1" d="M360,249.1l-23.2,61.1h5.5l6.5-17.5l0.2-0.5h28.4l0.2,0.5l6.4,17.5h5.6l-23.2-61.1H360z M375.9,288h-25.6l0.4-1
	l11.7-32.6l0.7-2l0.7,2l11.7,32.6L375.9,288z"/>
<polygon class="st1" points="467.4,249.1 453.9,303 453.2,305.9 452.5,303 438.6,249.1 432,249.1 418,303 417.2,305.9 416.5,303 
	403,249.1 397.2,249.1 413.2,310.1 420.5,310.1 434.5,256 435.2,253.1 435.9,256 449.9,310.1 457.2,310.1 473.2,249.1 "/>
<path class="st1" d="M504.1,249.1l-23.2,61h5.5l6.5-17.5l0.2-0.5h28.3l0.2,0.5l6.4,17.5h5.6L510.4,249L504.1,249.1z M520,288h-25.6
	l0.4-1l11.7-32.6l0.7-2l0.7,2l11.7,32.6L520,288z"/>
<path class="st1" d="M592.8,302.3l-0.2-7.1v-0.3c-0.1-3.8-0.2-7.8-3.3-10.8c-1.4-1.4-3.2-2.4-5.1-2.9l-0.6-0.1l-2.2-0.6l2.2-0.7
	l0.6-0.1c2.6-0.7,5-2.2,6.8-4.3c2.4-2.8,3.6-6.2,3.6-10.6c0.2-4.1-1.3-8.1-4.1-11.1c-3.7-3.9-8.5-4.6-15.9-4.6h-25.8v61.1h5.1v-27.6
	h20.5c2.7,0,6.6,0.3,9.4,2.7c3.1,2.6,3.2,6,3.4,10v0.9l0.3,6.6c0.2,4.4,1.2,6.4,1.7,7.4h5.4c-1.2-2.3-1.9-4.9-1.8-7.5L592.8,302.3z
	 M574,278.5h-20.1v-25.3h19.7c3,0,8.5,0,12,3.1c1.3,1.1,3.5,3.7,3.5,8.9c0,3.9-1.4,7.7-3.7,9.9S578.7,278.5,574,278.5z"/>
<path class="st1" d="M665.5,279.4c0-12.9-4.6-20-8.4-23.7c-6.2-5.9-13.4-6.7-20.3-6.7h-21.2v61.1h20.3c6.5,0,14.7-0.7,21-6.4
	C662.4,298.7,665.5,289.9,665.5,279.4z M653.3,300c-6.1,6-14.5,6-19.4,6h-13.2v-52.9h16c4.8,0,11.1,0.7,16.3,5.8
	c4.6,4.5,7.1,11.8,7.1,20.7C660.1,288.3,657.6,295.7,653.3,300z"/>
<path class="st1" d="M724.5,282.7c-3.5-3.3-8.9-4.9-16.1-6.3l-5.9-1.2c-4.2-0.8-8.8-2-11.5-4.8c-1.7-1.8-2.7-4.3-2.6-6.8
	c0-4.1,2.1-7.9,5.5-10c4-2.4,9.7-2.5,10.9-2.5c3.2,0,9.2,0.5,12.8,3.9c2.3,2.3,3.8,5.3,4.3,8.5h5.1c-0.5-4.1-2.3-7.9-5.2-10.9
	c-2.6-2.5-7.6-5.5-16.5-5.5c-3.6,0-10.3,0.5-15.2,3.6c-4.6,2.9-7.3,8-7.2,13.4c-0.1,3.5,1.1,6.8,3.5,9.4c3.7,4,9.8,5.5,15.3,6.5
	l6.3,1.2c2.7,0.5,9.3,1.9,12.4,5.2c4.2,5,3.9,12.3-0.7,16.9c-2.8,2.8-8,4.4-13.8,4.4c-6.2,0-11.9-2-15.1-5.3
	c-2.7-2.8-4.3-6.6-4.3-10.5h-5.2c0.1,5.1,2.1,10,5.6,13.6c5.6,5.6,13.5,6.3,19.7,6.3c7.7,0,13.4-1.7,17.2-5.2
	c3.3-3,5.1-7.6,5.1-12.9C729.1,289.6,727.5,285.6,724.5,282.7z"/>
<polygon class="st2" points="69.6,70.7 69.1,309.7 154.2,309.7 154.2,196.4 207.8,309.7 310.9,309.7 310.9,77 283.7,73.4 228,76.8 
	228,189 175.1,75.6 127.5,67.1 "/>
<polygon class="st2" points="73.3,74.3 76.4,76.6 76.4,305.8 73.3,305.8 "/>
<polygon class="st3" points="73.3,76.8 124.5,76.8 124.5,80.3 73.3,80.3 "/>
<polygon class="st3" points="87.4,73.5 89.6,73.5 89.6,305.8 87.4,305.8 "/>
<polygon class="st4" points="99.6,72.8 124.5,125.1 124.5,305.8 87.4,305.8 87.4,73.5 "/>
<polygon class="st4" points="139.1,77 139.1,88.4 139.1,309.3 150.2,309.3 150.2,77 "/>
<polygon class="st3" points="171,74.9 281.1,309.7 282.5,309.7 282.5,304.5 175.1,75.6 "/>
<polygon class="st4" points="154.2,77 177.9,81.7 175.1,75.6 150.2,71.5 "/>
<polygon class="st3" points="130.3,75.9 130.6,309.4 135,309.4 135,75.4 "/>
<polygon class="st4" points="247.1,87 247.1,309.3 282.5,309.3 284.3,85.1 "/>
<polygon class="st4" points="242.9,87 296.4,85.1 296.4,307.5 308.5,307.5 308.5,80.3 242.9,83.2 "/>
<polygon class="st4" points="203.1,299.5 279.5,299.5 285.6,305.6 285.6,309.3 207.8,309.3 "/>
<path class="st1" d="M1150.9,311.5h-42.1v-2.2c0-7.1,2.3-12.1,13.9-20c10.3-7.1,16-9.3,16-16.5c0-5.9-4.1-8.3-8.8-8.3
	c-5.7,0-9.4,3.5-9.4,9v2h-12v-1.6c0-7.9,4.3-19,21.9-19c2.6,0,20.6,0.2,20.6,17.3c0,7-2.7,13-15,20c-5.8,3.3-9.6,5.4-12,9.7h26.9
	V311.5z"/>
<path class="st1" d="M1162.7,284c0-28.5,18.3-29.1,22.3-29.1s22.3,0.6,22.3,29.1s-18.3,29.1-22.3,29.1S1162.7,312.5,1162.7,284z
	 M1195,284c0-8.2-0.6-19.5-9.9-19.5c-9.1,0-9.9,11.6-9.9,19.5s0.9,19.5,9.9,19.5C1194.3,303.5,1195,292.2,1195,284L1195,284z"/>
<path class="st1" d="M1260.9,311.5h-42.1v-2.2c0-7.1,2.3-12.1,13.9-20c10.3-7.1,16-9.3,16-16.5c0-5.9-4.1-8.3-8.8-8.3
	c-5.7,0-9.4,3.5-9.4,9v2h-12v-1.6c0-7.9,4.3-19,21.9-19c2.6,0,20.6,0.2,20.6,17.3c0,7-2.7,13-15,20c-5.8,3.3-9.6,5.4-12,9.7h26.9
	V311.5z"/>
<path class="st1" d="M1272.7,284c0-28.5,18.3-29.1,22.3-29.1s22.3,0.6,22.3,29.1s-18.3,29.1-22.3,29.1S1272.7,312.5,1272.7,284z
	 M1305,284c0-8.2-0.6-19.5-9.9-19.5c-9.1,0-9.9,11.6-9.9,19.5s0.9,19.5,9.9,19.5C1304.3,303.5,1305,292.2,1305,284L1305,284z"/>
<rect x="1034.8" y="69.2" class="st1" width="5" height="242.3"/>
<path class="st1" d="M1120.1,217.5h-5.8v-54.6h40.9v54.6h-5.8v-49.7h-29.3L1120.1,217.5L1120.1,217.5z"/>
<path class="st1" d="M1194.9,162.9c3.9,0,9.1,0,13.3,3.6c2.3,2,4.9,5.6,4.9,12.1s-2.6,10.1-4.4,11.9c-4.4,4.1-10.7,4.3-13.9,4.3
	h-15.3v22.8h-5.8V163h21.2L1194.9,162.9L1194.9,162.9z M1179.5,189.8h14.3c3,0,7.1-0.2,9.8-2.4c1.9-1.5,3.6-4.2,3.6-8.7
	c0-4.3-1.8-7.3-3.7-8.8c-2.5-1.9-6.3-2.1-9.7-2.1h-14.3L1179.5,189.8z"/>
<path class="st1" d="M1262.4,186.8v4.9h-29.2v20.9h32.8v4.9h-38.6v-54.6h37.7v4.9h-31.9v19L1262.4,186.8z"/>
<path class="st1" d="M1285,170.1L1285,170.1l0.1,2.1v45.3h-5.8v-54.6h8.7l18.3,47l18.4-47h8.7v54.6h-5.8v-45.3l0.2-2.1h-0.2
	l-18.7,47.4h-5L1285,170.1z"/>
<path class="st1" d="M1388.6,162.9h5.9v54.6h-5.8v-46.6l-31,46.6h-5.9v-54.6h5.8v46.3L1388.6,162.9z"/>
<path class="st1" d="M1449.8,162.9h5.9v54.6h-5.8v-46.6l-31,46.6h-5.9v-54.6h5.8v46.3L1449.8,162.9z"/>
<path class="st1" d="M1112.6,119.8c6.8,1.2,12.3-3.9,12.3-23.8V73.5h32.8v52.4h-7V79.4h-18.8v18.1c0,24.2-8.9,30.2-19.4,28.4
	L1112.6,119.8z"/>
<path class="st1" d="M1171.4,125.9h-7.6l19.8-52.4h7.5l19.8,52.4h-7.6l-4.9-13.6h-22.2L1171.4,125.9z M1196.5,106.4l-9.1-25.8
	l-9.1,25.8C1178.3,106.4,1196.5,106.4,1196.5,106.4z"/>
<path class="st1" d="M1247.6,73.5h7.4l-17.7,43c-4.2,10-9.1,10.1-13.3,10.1c-2,0.1-3.9-0.2-5.8-0.8v-6.1c1.6,0.6,3.3,0.8,4.9,0.8
	c2.9,0,6.1-0.5,8.2-7.7l-19.9-39.4h8.6l15,31.5L1247.6,73.5z"/>
<path class="st1" d="M1282.4,73.5c10.7,0,17.7,4.2,17.7,15c0,9.8-4.9,16.5-18.4,16.5h-13.6v20.9h-7V73.5H1282.4z M1268.1,99.1h12.9
	c8.4,0,12-3.5,12-10.4c0-6.5-3.9-9.3-12-9.3h-12.9V99.1z"/>
<path class="st1" d="M1343.4,95.9v5.9h-27.5V120h31.1v5.9h-38.1V73.5h37.3v5.9h-30.3v16.5H1343.4z"/>
<path class="st1" d="M1355.6,125.9h-7.6l19.9-52.4h7.5l19.8,52.4h-7.6l-4.9-13.6h-22.2L1355.6,125.9z M1380.7,106.4l-9.1-25.8
	l-9.1,25.8C1362.5,106.4,1380.7,106.4,1380.7,106.4z"/>
<path class="st1" d="M1394,79.4v-5.9h41.1v5.9h-17v46.5h-7V79.4H1394z"/>
</svg>
