<svg width="146" height="62" viewBox="0 0 146 62" fill="none" xmlns="http://www.w3.org/2000/svg">
<g clip-path="url(#clip0_247_1402)">
<path d="M133.082 38.7377C131.663 38.6959 130.254 38.5849 128.876 38.1981C127.479 37.8058 126.186 37.2002 125.001 36.3662C124.611 36.091 124.245 35.7805 123.869 35.4849C123.738 35.3827 123.614 35.273 123.482 35.1733C123.403 35.1136 123.311 35.1097 123.223 35.1611C123.176 35.189 123.126 35.2153 123.084 35.2506C122.704 35.5764 122.268 35.8159 121.84 36.0692C120.418 36.9127 118.88 37.1508 117.262 36.9237C116.317 36.7911 115.461 36.4168 114.672 35.8791C114.218 35.57 113.873 35.1738 113.625 34.6901C113.491 34.4279 113.359 34.1633 113.254 33.8887C113.14 33.5906 113.062 33.6013 112.867 33.8608C112.68 34.1108 112.483 34.3558 112.274 34.5882C111.942 34.9575 111.604 35.323 111.253 35.675C110.463 36.467 109.543 37.0696 108.507 37.4906C107.391 37.944 106.239 38.0981 105.043 37.8926C104.148 37.739 103.287 37.4928 102.468 37.0922C101.418 36.5781 100.568 35.8275 99.888 34.892C99.1432 33.8679 98.654 32.7225 98.3637 31.4868C98.0184 30.0168 97.9726 28.5371 98.135 27.0422C98.2306 26.1626 98.3623 25.2904 98.5632 24.4285C98.596 24.2871 98.5969 24.1376 98.6062 23.9917C98.6107 23.9216 98.5234 23.858 98.4551 23.8754C98.4018 23.8892 98.3494 23.9069 98.2966 23.9235C97.6267 24.1329 96.9447 24.2741 96.2423 24.3235C95.2766 24.3918 94.3247 24.3139 93.4018 24.0265C92.0618 23.6097 91.1533 22.7342 90.7284 21.3843C90.6459 21.1219 90.5975 20.8484 90.5304 20.581C90.5227 20.5497 90.4903 20.4975 90.4771 20.4997C90.4287 20.5077 90.3796 20.5293 90.3384 20.5569C90.3097 20.5763 90.2903 20.6124 90.2718 20.6439C89.9456 21.1995 89.6053 21.7473 89.2976 22.3131C88.5843 23.6246 87.9521 24.9741 87.4203 26.3701C86.7107 28.2324 86.1455 30.1345 85.7969 32.0998C85.6389 32.99 85.5281 33.8831 85.4903 34.7857C85.4848 34.9141 85.4759 35.044 85.4527 35.1702C85.4165 35.3678 85.3033 35.517 85.0994 35.5468C84.8644 35.5816 84.6221 35.6164 84.3873 35.5968C83.241 35.5007 82.1377 35.2277 81.0869 34.7517C80.6665 34.5611 80.2593 34.3486 79.8859 34.0762C79.7632 33.9867 79.6522 33.9934 79.5348 34.0845C79.2876 34.2763 79.045 34.4757 78.787 34.652C77.955 35.2203 77.0432 35.5913 76.0474 35.7689C75.4629 35.8731 74.8773 35.9043 74.2875 35.8907C73.0138 35.8617 71.8661 35.4595 70.8542 34.6873C70.2725 34.2434 69.8626 33.6555 69.5308 33.0104C69.472 32.896 69.4234 32.7761 69.364 32.662C69.3038 32.5463 69.1808 32.5079 69.088 32.5885C68.9223 32.7328 68.7646 32.8869 68.6104 33.0438C68.4044 33.2538 68.214 33.4798 68.0013 33.6823C66.8517 34.7763 65.4874 35.4686 63.9435 35.807C63.1842 35.9734 62.4102 35.9894 61.6351 35.9582C60.6144 35.917 59.6252 35.7156 58.6722 35.3534C57.0972 34.7547 55.8116 33.7826 54.863 32.3755C54.0205 31.1257 53.5551 29.7425 53.4048 28.2531C53.2214 26.4386 53.4158 24.6501 53.8517 22.8856C54.3807 20.7428 55.195 18.7189 56.3862 16.853C57.438 15.2048 58.7233 13.7749 60.3321 12.653C61.7516 11.6631 63.2969 10.9515 64.9993 10.5965C66.3484 10.3149 67.7025 10.3 69.064 10.4846C69.7772 10.5813 70.4786 10.7241 71.1592 10.9631C71.7517 11.1711 72.326 11.4164 72.8448 11.7767C73.1497 11.9886 73.4135 12.2405 73.6273 12.5472C73.8646 12.8875 74.0074 13.2569 74.0477 13.6716C74.1168 14.3835 73.966 14.3213 74.8168 14.4288C75.1977 14.4769 75.5728 14.5841 75.9452 14.6852C76.1206 14.733 76.291 14.8153 76.449 14.907C76.7112 15.0592 76.8065 15.3294 76.702 15.6187C76.6081 15.8781 76.4982 16.132 76.3858 16.3839C76.0327 17.1741 75.6789 17.9636 75.319 18.7507C74.8358 19.8069 74.4345 20.8948 74.0477 21.9885C73.5069 23.5177 73.0287 25.0653 72.7384 26.664C72.5638 27.6252 72.4415 28.5943 72.468 29.5739C72.4774 29.9223 72.5191 30.2712 72.5677 30.6168C72.6166 30.9663 72.7575 31.2882 72.9188 31.6006C73.2842 32.309 73.8812 32.7084 74.6472 32.8435C75.7024 33.0297 76.7009 32.8626 77.6117 32.2728C78.1942 31.8957 78.6459 31.3918 79.0119 30.8069C79.4461 30.1132 79.7152 29.3496 79.9477 28.5719C80.1113 28.0252 80.2731 27.4776 80.419 26.9262C80.4892 26.6604 80.535 26.3858 80.567 26.1123C80.6615 25.3079 80.7541 24.5028 80.8281 23.6961C80.9679 22.1745 81.0905 20.6511 81.2278 19.1292C81.3038 18.2857 81.3861 17.4429 81.4819 16.6016C81.5841 15.704 81.7496 14.8164 82.001 13.9484C82.0976 13.6146 82.2504 13.2969 82.383 12.974C82.4175 12.8895 82.4689 12.8113 82.5178 12.7334C82.928 12.0781 83.499 11.7623 84.2868 11.8761C85.2574 12.0165 86.1966 12.2679 87.1057 12.6339C87.2247 12.682 87.3399 12.7422 87.4512 12.8066C87.6996 12.9508 87.8153 13.1677 87.7684 13.4547C87.7327 13.6724 87.6866 13.889 87.6374 14.1042C87.4977 14.7142 87.3457 15.3214 87.2137 15.9331C86.9535 17.1392 86.7394 18.3537 86.5706 19.5762C86.5101 20.0138 86.4405 20.4503 86.3864 20.8887C86.3618 21.0885 86.3549 21.2921 86.3599 21.4932C86.3629 21.6136 86.4563 21.686 86.569 21.7228C86.6701 21.7556 86.7554 21.7125 86.8134 21.639C86.9156 21.5098 87.014 21.3755 87.0974 21.2335C88.0139 19.6759 88.7747 18.0393 89.5244 16.398C89.7917 15.8126 90.0174 15.2079 90.2591 14.6106C90.5285 13.9451 90.7942 13.2779 91.0621 12.6118C91.0895 12.5436 91.1235 12.4778 91.1516 12.4099C91.4138 11.7725 91.9077 11.4388 92.5679 11.3092C93.1153 11.2017 93.6689 11.1971 94.2192 11.2261C94.8622 11.26 95.5017 11.3446 96.126 11.52C96.3961 11.596 96.6436 11.7153 96.8726 11.8698C97.3754 12.2087 97.5314 12.6242 97.3759 13.2074C97.3287 13.3845 97.2649 13.5602 97.1837 13.7243C96.9798 14.1365 96.7759 14.5501 96.5464 14.9482C95.9843 15.922 95.4677 16.9182 95.0141 17.9473C94.7294 18.5938 94.5642 19.2715 94.4808 19.9693C94.4548 20.1873 94.4559 20.411 94.4711 20.6304C94.4951 20.9755 94.6451 21.2711 94.9056 21.4976C95.2155 21.7672 95.5716 21.9565 95.9787 22.0355C96.9765 22.2292 97.8756 21.9808 98.7043 21.4216C99.312 21.0114 99.7852 20.4818 100.12 19.8287C100.515 19.0582 100.924 18.2954 101.405 17.5746C102.523 15.9005 103.886 14.4664 105.599 13.3939C106.945 12.5519 108.416 12.0452 109.995 11.8573C110.821 11.7593 111.646 11.7286 112.474 11.833C113.322 11.9399 114.132 12.1698 114.897 12.5527C115.012 12.6101 115.126 12.6709 115.246 12.7184C115.324 12.7497 115.397 12.7102 115.422 12.6336C115.467 12.4947 115.508 12.3524 115.532 12.2085C115.813 10.5011 116.1 8.79493 116.366 7.08512C116.626 5.41068 116.963 3.75143 117.316 2.09522C117.37 1.84437 117.445 1.59518 117.537 1.35565C117.82 0.619407 118.386 0.219927 119.139 0.067429C119.355 0.0237791 119.578 -0.000808499 119.798 2.02971e-05C120.762 0.00416428 121.704 0.15169 122.616 0.473263C122.968 0.59703 123.284 0.782404 123.58 1.00369C123.922 1.25924 124.056 1.60236 123.994 2.02118C123.964 2.22147 123.924 2.4201 123.885 2.61874C123.675 3.66661 123.388 4.69543 123.121 5.72921C122.572 7.85037 122.029 9.9732 121.475 12.093C120.817 14.6051 120.256 17.1398 119.711 19.6776C119.436 20.9556 119.178 22.2372 118.92 23.5188C118.624 24.999 118.324 26.4787 118.05 27.9633C117.893 28.8137 117.768 29.6709 117.663 30.529C117.609 30.9655 117.621 31.4111 117.623 31.8526C117.624 32.0338 117.66 32.2197 117.709 32.3952C117.964 33.3044 118.588 33.8447 119.632 33.9569C120.338 34.0326 120.976 33.7994 121.536 33.3613C121.55 33.3499 121.564 33.3367 121.577 33.3245C121.696 33.2176 121.724 33.1165 121.663 32.9814C121.617 32.8808 121.565 32.783 121.512 32.6866C120.828 31.4661 120.801 30.1958 121.233 28.8954C121.502 28.0863 121.898 27.3381 122.378 26.6361C122.661 26.2237 122.992 25.8535 123.419 25.5811C124.122 25.133 124.875 24.9733 125.689 25.1949C126.369 25.38 127.009 25.6612 127.588 26.0659C127.768 26.1916 127.936 26.3405 128.086 26.5002C128.363 26.7928 128.437 27.1403 128.295 27.5227C128.238 27.6779 128.174 27.8315 128.103 27.9807C127.815 28.5788 127.498 29.1606 127.124 29.7099C126.699 30.3337 126.269 30.9542 125.847 31.5802C125.714 31.7783 125.599 31.9891 125.477 32.1946C125.366 32.3808 125.359 32.5772 125.421 32.7808C125.559 33.2342 125.81 33.6124 126.177 33.9124C126.492 34.1702 126.833 34.3834 127.204 34.5553C128.031 34.9385 128.897 35.1838 129.803 35.2645C130.665 35.3413 131.532 35.3595 132.39 35.1948C133.116 35.0556 133.827 34.8606 134.478 34.5009C135.722 33.8141 136.525 32.7927 136.824 31.3871C137.026 30.4364 136.884 29.5181 136.593 28.6136C136.274 27.6199 135.76 26.7378 135.082 25.9388C134.042 24.7136 132.806 23.7486 131.389 22.9999C130.13 22.3341 128.817 21.8087 127.433 21.4722C126.933 21.3506 126.424 21.2617 125.915 21.1832C125.573 21.1307 125.275 21.0072 125.037 20.7605C124.36 20.0585 123.87 19.2552 123.648 18.2899C123.507 17.6744 123.758 16.8699 124.514 16.4911C124.629 16.4334 124.744 16.3732 124.864 16.327C125.638 16.0314 126.405 15.7173 127.189 15.4515C128.479 15.0142 129.774 14.5918 131.077 14.194C133.613 13.4191 136.175 12.7397 138.769 12.1814C139.417 12.0419 140.058 11.8703 140.705 11.7305C141.227 11.6178 141.756 11.5429 142.278 11.4291C143.018 11.2672 143.664 11.5009 144.262 11.8977C144.519 12.0687 144.753 12.2902 144.954 12.5264C145.352 12.9953 145.459 13.5348 145.248 14.1274C145.135 14.4454 144.953 14.7181 144.739 14.9747C144.359 15.4319 143.891 15.7902 143.418 16.1425C142.309 16.9688 141.063 17.5014 139.734 17.8548C139.249 17.9838 138.752 18.0051 138.254 17.9772C137.905 17.9575 137.618 17.8133 137.402 17.5307C137.256 17.3412 137.097 17.1624 136.947 16.9765C136.762 16.7478 136.531 16.6997 136.254 16.7713C135.951 16.8497 135.646 16.9182 135.34 16.9848C133.321 17.4243 131.349 18.0197 129.433 18.7952C129.264 18.8637 129.104 18.9571 128.944 19.0452C128.874 19.0836 128.881 19.196 128.953 19.2264C129.444 19.4342 129.935 19.6439 130.429 19.8447C131.282 20.1914 132.143 20.521 132.958 20.9509C133.853 21.423 134.757 21.8858 135.62 22.4129C137.053 23.2881 138.4 24.284 139.565 25.5054C140.663 26.6571 141.462 27.9871 141.908 29.5209C142.053 30.0176 142.15 30.5254 142.159 31.0434C142.168 31.5954 142.198 32.1523 142.14 32.6988C141.934 34.6481 141.031 36.1811 139.334 37.2116C138.02 38.0097 136.579 38.4302 135.067 38.6283C134.41 38.7145 133.748 38.7598 133.082 38.7368V38.7377ZM103.285 30.8793C103.285 31.3575 103.274 31.7813 103.288 32.204C103.306 32.7587 103.391 33.3044 103.604 33.8212C103.673 33.99 103.76 34.1547 103.859 34.308C104.104 34.6868 104.728 34.9874 105.273 34.805C105.642 34.6818 105.994 34.5326 106.319 34.3166C106.86 33.9569 107.324 33.5124 107.75 33.0267C108.345 32.3482 108.91 31.6448 109.403 30.8879C109.704 30.4257 109.989 29.9524 110.284 29.4864C111.251 27.9589 112.05 26.3447 112.787 24.6968C113.119 23.9558 113.375 23.1892 113.634 22.4223C113.692 22.2504 113.72 22.0659 113.739 21.8849C113.744 21.8311 113.684 21.7413 113.631 21.7164C113.516 21.6628 113.387 21.639 113.263 21.6065C112.868 21.5026 112.5 21.3379 112.158 21.1155C112.066 21.0561 111.979 20.9857 111.903 20.9078C111.792 20.7945 111.745 20.6608 111.827 20.5066C111.906 20.3608 111.984 20.2146 112.063 20.0693C112.69 18.912 113.124 17.6832 113.389 16.3964C113.483 15.9433 113.472 15.4786 113.348 15.0283C113.212 14.5365 112.88 14.2542 112.378 14.1639C112.005 14.0967 111.646 14.1556 111.291 14.2688C110.634 14.4791 110.041 14.81 109.516 15.2529C108.867 15.8002 108.285 16.4138 107.775 17.0945C106.843 18.3407 106.121 19.7085 105.53 21.139C104.741 23.0466 104.126 25.0122 103.743 27.0464C103.5 28.3324 103.311 29.6234 103.285 30.879V30.8793ZM58.9783 28.8766C58.9653 29.3764 59.0421 30.3235 59.1327 30.7995C59.1913 31.1083 59.2788 31.4075 59.4203 31.6893C59.6073 32.0623 59.8821 32.3413 60.2545 32.541C60.7531 32.8087 61.2735 32.8411 61.8091 32.7308C62.4163 32.606 62.9532 32.3269 63.4093 31.9076C63.7886 31.5589 64.1496 31.1918 64.4639 30.7804C65.2716 29.724 65.9539 28.5896 66.5404 27.3992C67.4116 25.6305 68.1461 23.8058 68.7041 21.9128C68.8444 21.4365 68.9814 20.9592 69.1079 20.4793C69.1654 20.2608 69.1198 20.1994 68.9082 20.1964C68.4604 20.19 68.035 20.077 67.6113 19.9513C67.2909 19.8563 66.9945 19.7069 66.7249 19.5126C66.6086 19.4292 66.5144 19.311 66.4238 19.1974C66.3616 19.1195 66.3677 19.0167 66.431 18.941C66.5727 18.7725 66.7188 18.6068 66.8735 18.4498C67.8362 17.4732 68.3895 16.2914 68.6248 14.9523C68.6593 14.7551 68.6654 14.5479 68.6494 14.3479C68.5958 13.6696 68.1408 13.232 67.4619 13.2047C66.9984 13.1859 66.5445 13.2505 66.1086 13.421C65.7302 13.5691 65.3747 13.7583 65.0352 13.9824C64.1413 14.573 63.4789 15.3841 62.8927 16.2591C62.2257 17.2547 61.6713 18.3159 61.2091 19.4215C60.6266 20.815 60.1451 22.2452 59.76 23.705C59.3131 25.399 59.0161 27.119 58.9783 28.8764V28.8766Z" fill="#1A2024"/>
<path d="M19.3368 22.7286C18.4081 22.7938 17.5628 22.8422 16.7198 22.9146C15.4179 23.0265 14.1168 23.1486 12.8166 23.2792C12.2678 23.3345 11.7228 23.4276 11.1747 23.4922C10.9883 23.5143 10.8728 23.6116 10.788 23.7644C10.6449 24.0218 10.4982 24.2774 10.3604 24.5376C9.25658 26.6212 8.23038 28.7421 7.37794 30.9423C6.68626 32.7275 6.03408 34.5271 5.55703 36.385C5.51117 36.5632 5.45399 36.7386 5.39681 36.9135C5.21533 37.4696 4.89601 37.6746 4.31068 37.6086C4.12781 37.5878 3.94384 37.5663 3.76485 37.5262C2.68424 37.284 1.62738 36.9701 0.646211 36.4422C-0.142702 36.0176 -0.0587281 35.9189 0.120269 35.2216C0.620521 33.2731 1.30695 31.3896 2.12376 29.5532C2.53507 28.6286 2.94334 27.7017 3.37951 26.7886C3.70463 26.1082 4.07201 25.4476 4.42117 24.7788C4.47227 24.681 4.53083 24.5871 4.58111 24.4887C4.64934 24.3558 4.63083 24.2876 4.48691 24.2282C3.90904 23.9898 3.46348 23.5845 3.06295 23.1196C2.77014 22.7795 2.56297 22.3941 2.43397 21.9642C2.37707 21.7747 2.38038 21.5879 2.51353 21.4437C2.60938 21.3401 2.74169 21.252 2.87456 21.2039C3.25465 21.0664 3.63751 20.9266 4.0303 20.8348C4.80071 20.6553 5.57857 20.5086 6.35312 20.3464C6.58737 20.2975 6.81995 20.242 7.05392 20.1911C7.16883 20.1663 7.25198 20.0986 7.31578 20.0038C7.36716 19.9276 7.41744 19.8505 7.46661 19.7726C9.07426 17.2346 10.8214 14.7949 12.7081 12.4588C14.4795 10.2655 16.3811 8.18853 18.4194 6.23699C19.4591 5.24161 20.553 4.31584 21.7118 3.46412C22.6634 2.76489 23.6603 2.13998 24.7177 1.61397C24.9641 1.49131 25.2229 1.39323 25.4785 1.29018C25.9376 1.10509 26.4152 1.09431 26.8911 1.18658C27.3422 1.27416 27.7894 1.38494 28.233 1.50512C28.7742 1.65154 29.249 1.93195 29.6827 2.28253C29.768 2.3516 29.8445 2.43254 29.9191 2.51349C30.1233 2.73478 30.1821 2.99723 30.1039 3.28344C30.0313 3.54948 29.9503 3.81442 29.8564 4.07356C29.1783 5.94525 28.6355 7.85646 28.1756 9.79252C27.7756 11.4769 27.4041 13.1666 27.1933 14.8869C27.0455 16.0925 26.8947 17.2975 26.7795 18.5076C26.5245 21.1871 26.4254 23.8724 26.4403 26.5615C26.4502 28.3658 26.5016 30.1698 26.6665 31.9686C26.7237 32.5919 26.7635 33.2168 26.816 33.8406C26.8314 34.0238 26.864 34.2053 26.8861 34.3879C26.8994 34.4975 26.9135 34.6072 26.9176 34.7175C26.9298 35.0481 26.8682 35.2288 26.4226 35.3178C26.2975 35.3426 26.1663 35.3421 26.0375 35.3454C24.7017 35.3783 23.4443 35.0672 22.2626 34.4547C21.7673 34.1981 21.3193 33.8704 21.0649 33.3497C20.6759 32.5537 20.5284 31.71 20.6041 30.8279C20.6331 30.4906 20.7781 30.2251 21.1132 30.1071C21.2566 30.0566 21.3176 29.9602 21.3378 29.8253C21.3513 29.7347 21.3557 29.6422 21.3599 29.5505C21.4427 27.8036 21.5231 26.0565 21.6096 24.3097C21.625 23.9975 21.6684 23.687 21.6949 23.3754C21.746 22.7731 21.7176 22.7367 21.1306 22.7303C20.5049 22.7237 19.879 22.7289 19.3359 22.7289L19.3368 22.7286ZM21.6626 19.3427L21.6621 19.3527C21.7355 19.3527 21.809 19.3549 21.8825 19.3521C21.9875 19.3485 22.0527 19.2875 22.0792 19.1913C22.1035 19.1032 22.1234 19.0123 22.1317 18.9214C22.2319 17.8213 22.3955 16.7298 22.5789 15.6416C22.7836 14.4263 22.9827 13.2099 23.2206 12.001C23.5045 10.5575 23.8272 9.12148 24.1324 7.68241C24.1553 7.57439 24.1747 7.46554 24.1932 7.35669C24.1992 7.32078 24.2139 7.27133 24.197 7.25006C24.1691 7.21525 24.0968 7.16718 24.0813 7.17823C23.7819 7.39067 23.4772 7.59815 23.1949 7.83242C22.5427 8.37307 21.9449 8.97202 21.3483 9.57317C20.2199 10.7106 19.1542 11.9048 18.1238 13.1301C16.8678 14.6236 15.7013 16.187 14.5862 17.7879C14.355 18.12 14.1329 18.4587 13.9119 18.7977C13.8318 18.9203 13.7646 19.0518 13.6959 19.1817C13.6591 19.251 13.7075 19.3438 13.7785 19.3491C13.8332 19.3532 13.8884 19.3588 13.9428 19.3563C14.9168 19.3118 15.8905 19.2524 16.8648 19.2248C17.6736 19.2018 18.484 19.1983 19.2928 19.2187C20.0831 19.2386 20.8726 19.2996 21.6626 19.3427Z" fill="#1A2024"/>
<path d="M40.8112 26.2334C40.8112 25.2156 40.8195 24.1846 40.8079 23.1535C40.8018 22.6204 40.7621 22.0874 40.7339 21.5545C40.7311 21.502 40.7162 21.439 40.6828 21.4031C40.6538 21.3719 40.5861 21.3531 40.5438 21.3633C40.4958 21.3749 40.4461 21.4172 40.4162 21.4595C40.2897 21.6402 40.1651 21.8228 40.0494 22.0106C39.5466 22.8276 39.1378 23.6931 38.7276 24.5581C37.6807 26.7657 36.9592 29.0803 36.4612 31.4672C36.3523 31.9891 36.2697 32.5184 36.2092 33.048C36.1515 33.5549 35.8739 33.8505 35.4095 33.9903C35.2176 34.0481 35.0154 34.0807 34.8157 34.1022C34.3524 34.1522 33.8966 34.0906 33.4491 33.9696C33.1632 33.8925 32.8843 33.7898 32.6495 33.6058C32.1078 33.1811 31.642 32.6886 31.3407 32.0598C31.0374 31.4274 30.7993 30.7713 30.6291 30.0903C30.2703 28.6545 30.1167 27.1923 30.0554 25.7178C30.0355 25.2399 30.02 24.7614 30.0156 24.2829C29.9946 21.9963 30.1449 19.7196 30.4515 17.4547C30.6962 15.6469 31.0921 13.8688 31.6122 12.1195C31.6907 11.8551 31.7857 11.5954 31.8813 11.3366C31.9906 11.0404 32.1561 10.776 32.3555 10.5315C32.7608 10.0348 33.2779 9.81711 33.9162 9.89447C34.6146 9.97928 35.2949 10.1329 35.93 10.4459C36.1272 10.5431 36.3236 10.6489 36.5023 10.7763C37.1857 11.2634 37.191 11.6946 37.0296 12.2541C36.9122 12.6607 36.7747 13.0616 36.6623 13.4696C36.178 15.2267 35.7134 16.9892 35.4565 18.7968C35.2046 20.5677 35.0587 22.3463 35.2004 24.1365C35.222 24.4097 35.2861 24.6802 35.3383 24.9507C35.3551 25.0377 35.4993 25.0725 35.5648 25.0089C35.6432 24.9327 35.7267 24.8567 35.7863 24.7664C35.9487 24.5211 36.1126 24.2749 36.2534 24.0172C37.2247 22.2397 38.1404 20.4337 38.9737 18.5877C39.8218 16.7091 40.6629 14.8264 41.3289 12.8723C41.5308 12.28 41.7214 11.6841 41.9197 11.0907C42.0247 10.7766 42.1385 10.4655 42.2421 10.1508C42.3694 9.76463 42.6476 9.53864 43.0255 9.44416C43.2548 9.38697 43.4992 9.34802 43.7337 9.36017C44.5655 9.40355 45.3781 9.55466 46.1472 9.88977C46.2983 9.95552 46.44 10.0428 46.5869 10.1185C46.9049 10.2823 47.0101 10.5644 47.0101 10.8973C47.0101 11.0249 46.9886 11.1542 46.9631 11.2797C46.8532 11.8206 46.7419 12.3612 46.6242 12.9005C46.3889 13.9793 46.1345 15.0543 45.9146 16.1361C45.6615 17.3815 45.511 18.6438 45.3552 19.9041C45.1317 21.7145 45.0008 23.5318 45.0456 25.3573C45.0549 25.7422 45.113 26.1262 45.1514 26.5102C45.1594 26.5903 45.2094 26.6585 45.2889 26.6505C45.353 26.6442 45.4392 26.6047 45.4687 26.553C45.55 26.4104 45.619 26.2577 45.6709 26.1019C45.9444 25.2811 46.2088 24.4575 46.4808 23.6365C46.9438 22.2391 47.3861 20.8343 47.8805 19.4483C48.8647 16.6895 49.9765 13.9826 51.3859 11.4095C51.774 10.7009 52.2212 10.0216 52.6786 9.35437C53.054 8.80709 53.5242 8.33633 54.0495 7.92415C54.6915 7.42051 55.418 7.21387 56.2224 7.32354C56.5851 7.373 56.9442 7.46416 57.2972 7.56417C57.4889 7.61832 57.6825 7.70507 57.8436 7.8211C58.2397 8.10648 58.2228 8.18135 57.9919 8.53303C57.2444 9.67152 56.4931 10.8078 55.7624 11.9571C54.7838 13.4967 53.9344 15.1087 53.1333 16.747C52.1706 18.7159 51.285 20.7194 50.4978 22.7637C50.0218 23.9997 49.5962 25.2559 49.1782 26.5129C48.6959 27.9633 48.3241 29.446 47.9849 30.9354C47.7479 31.9758 47.5164 33.0187 47.4126 34.084C47.3626 34.597 47.2999 35.1092 47.2714 35.6236C47.2515 35.9852 47.0852 36.2129 46.7549 36.3245C46.5292 36.4007 46.3002 36.4908 46.0665 36.5151C44.8516 36.6422 43.7263 36.3842 42.7095 35.6899C42.273 35.3918 41.9507 34.9998 41.7059 34.5351C41.4015 33.9566 41.2283 33.3378 41.1543 32.6941C41.0681 31.9449 40.9783 31.194 40.9435 30.4411C40.8789 29.0438 40.8529 27.6448 40.8107 26.2328L40.8112 26.2334Z" fill="#1A2024"/>
<path d="M68.7257 42.3805C69.2229 42.3805 69.7201 42.3763 70.2174 42.3821C70.4469 42.3849 70.5124 42.444 70.543 42.67C70.6223 43.2538 70.6963 43.8383 70.769 44.4229C70.9485 45.8661 71.1344 47.3085 71.3018 48.7531C71.4035 49.6305 71.4745 50.5118 71.5618 51.3909C71.5637 51.4099 71.5963 51.426 71.6145 51.4434C71.6231 51.4279 71.6366 51.4133 71.6397 51.3967C71.6499 51.3425 71.6565 51.2876 71.6643 51.2329C71.7267 50.7953 71.7891 50.3579 71.8513 49.9203C72.154 47.7884 72.4551 45.6562 72.7614 43.5245C72.8059 43.2154 72.8683 42.9082 72.9335 42.6023C72.9686 42.4377 73.0316 42.3921 73.2056 42.3896C73.7396 42.3819 74.2735 42.3786 74.8078 42.3769C74.9917 42.3763 75.176 42.3799 75.3594 42.3926C75.5182 42.4037 75.5972 42.4728 75.6224 42.625C75.6643 42.8791 75.6969 43.135 75.7312 43.3905C76.0248 45.5802 76.3196 47.7699 76.6096 49.9598C76.6726 50.4342 76.7171 50.911 76.7762 51.3859C76.7811 51.4268 76.832 51.4619 76.8618 51.4997C76.8845 51.4561 76.922 51.4144 76.9275 51.3685C77.1502 49.5413 77.3687 47.7138 77.5908 45.8866C77.7129 44.8818 77.8402 43.8776 77.9653 42.8731C78.025 42.3935 78.0363 42.3808 78.5004 42.3802C79.3476 42.3794 80.1945 42.3808 81.0417 42.3835C81.1702 42.3838 81.2989 42.3924 81.4268 42.404C81.5185 42.4123 81.5958 42.5001 81.5906 42.5924C81.5834 42.7206 81.5729 42.8496 81.553 42.9764C81.4304 43.7585 81.3011 44.5392 81.1812 45.3219C81.0754 46.0134 80.9843 46.7068 80.8779 47.3983C80.7185 48.4354 80.5489 49.4708 80.3887 50.5079C80.2257 51.5633 80.0721 52.6197 79.9078 53.6748C79.7266 54.8389 79.534 56.0012 79.3537 57.1654C79.2183 58.0384 79.1051 58.915 78.9623 59.7866C78.8219 60.6427 78.9222 60.5695 78.0485 60.575C77.404 60.5792 76.7593 60.5764 76.1149 60.5764C76.0044 60.5764 75.8936 60.5778 75.7834 60.5715C75.5254 60.5565 75.4635 60.506 75.4232 60.2482C75.3003 59.4661 75.182 58.6832 75.0633 57.9005C74.8094 56.2264 74.5578 54.5519 74.2984 52.8786C74.2849 52.7907 74.3578 52.6545 74.2003 52.6147C74.1713 52.6976 74.1293 52.7786 74.1155 52.8642C73.9553 53.8449 73.7992 54.8265 73.6423 55.8078C73.5028 56.68 73.3633 57.5524 73.2239 58.4249C73.1338 58.9885 73.0449 59.552 72.9531 60.1153C72.9385 60.206 72.915 60.2955 72.8907 60.3841C72.8631 60.4844 72.788 60.5311 72.6899 60.5452C72.6537 60.5505 72.6167 60.5518 72.58 60.5518C71.7698 60.5532 70.9599 60.5549 70.1497 60.5538C70.021 60.5538 69.892 60.5452 69.7641 60.5306C69.6663 60.5195 69.5895 60.4643 69.5691 60.3631C69.5326 60.1827 69.5014 60.0012 69.4738 59.8195C69.2575 58.4003 69.0401 56.9811 68.8279 55.5614C68.6591 54.4323 68.497 53.3024 68.3329 52.1727C68.2006 51.2619 68.073 50.3502 67.9374 49.4399C67.6824 47.7287 67.4225 46.0181 67.1656 44.3072C67.0918 43.8157 67.02 43.3239 66.9501 42.8319C66.9371 42.7413 66.9299 42.6485 66.9355 42.5573C66.9402 42.4797 66.991 42.4175 67.0703 42.4059C67.1788 42.3902 67.2899 42.3841 67.3998 42.3835C67.8418 42.3813 68.2838 42.3827 68.7257 42.3827V42.3802V42.3805Z" fill="#1A2024"/>
<path d="M133.532 51.7594C133.532 50.1206 133.534 48.4818 133.531 46.8433C133.53 46.3424 133.597 45.8515 133.726 45.3694C134.23 43.4875 135.732 42.4239 137.454 42.2415C138.096 42.1736 138.742 42.1512 139.382 42.2507C141.098 42.5178 142.33 43.4195 142.992 45.05C143.159 45.4611 143.275 45.8874 143.333 46.3275C143.356 46.5093 143.367 46.6938 143.368 46.8773C143.37 47.0596 143.291 47.1289 143.094 47.1452C143.039 47.1497 142.983 47.1524 142.928 47.1524C142.063 47.1513 141.198 47.1502 140.332 47.1469C140.241 47.1466 140.144 47.1477 140.06 47.1193C139.999 47.0988 139.931 47.0405 139.906 46.982C139.863 46.8825 139.85 46.7698 139.826 46.6621C139.636 45.7921 138.802 45.2857 137.863 45.6122C137.476 45.7468 137.268 46.0286 137.191 46.417C137.17 46.5245 137.169 46.6369 137.169 46.7471C137.167 47.5757 137.169 48.4042 137.17 49.233C137.17 49.2697 137.175 49.3065 137.178 49.3429C137.186 49.4172 137.276 49.4648 137.343 49.4233C137.643 49.2388 137.956 49.0885 138.299 49.0026C140.057 48.5628 142.488 49.2377 143.27 51.8517C143.397 52.2769 143.472 52.7131 143.474 53.1576C143.479 54.3729 143.481 55.5882 143.477 56.8032C143.475 57.2657 143.399 57.7198 143.268 58.1641C142.877 59.4929 142.039 60.4016 140.731 60.8726C140.19 61.0679 139.634 61.1809 139.057 61.1828C138.634 61.1842 138.209 61.1964 137.787 61.1743C136.927 61.1295 136.114 60.9085 135.394 60.4198C134.59 59.8739 134.033 59.1387 133.763 58.1967C133.605 57.6453 133.519 57.0875 133.524 56.509C133.537 54.9257 133.528 53.3419 133.528 51.7586H133.532L133.532 51.7594ZM139.822 55.1116H139.82C139.82 54.6331 139.829 54.1541 139.816 53.6759C139.811 53.4761 139.785 53.2692 139.723 53.0802C139.581 52.6471 139.277 52.3584 138.827 52.2666C138.416 52.1829 138.02 52.2559 137.666 52.4943C137.391 52.6786 137.222 52.9319 137.186 53.2642C137.171 53.4104 137.162 53.5579 137.162 53.7049C137.16 54.6069 137.16 55.5089 137.162 56.4109C137.162 56.5579 137.165 56.7062 137.184 56.8518C137.258 57.4212 137.669 57.8268 138.244 57.8735C138.461 57.8911 138.689 57.8779 138.901 57.8309C139.284 57.7464 139.553 57.5041 139.705 57.1397C139.791 56.933 139.824 56.7159 139.823 56.4921C139.821 56.0319 139.823 55.5719 139.823 55.1116H139.822Z" fill="#1A2024"/>
<path d="M5.01399 51.4011C5.01399 48.6216 5.01399 45.8421 5.01399 43.0623C5.01399 42.9518 5.01289 42.8413 5.0162 42.7311C5.02753 42.333 5.05156 42.3048 5.47364 42.3048C7.00119 42.3042 8.52902 42.3018 10.0566 42.3145C10.6074 42.3192 11.1571 42.3473 11.699 42.4857C13.0412 42.8286 13.823 43.7709 13.9948 45.0752C14.0332 45.3664 14.0558 45.6617 14.0572 45.9554C14.0647 47.6121 14.0674 49.2686 14.0625 50.9254C14.0614 51.2558 14.0321 51.5873 13.9945 51.9161C13.9017 52.7275 13.5277 53.3789 12.8542 53.8507C12.8241 53.8717 12.7946 53.8941 12.7628 53.9126C12.4145 54.1182 12.362 54.124 12.5034 54.6317C12.7603 55.5534 13.0305 56.4711 13.2893 57.3922C13.5431 58.2956 13.7904 59.2006 14.0384 60.1057C14.0625 60.1932 14.0818 60.2855 14.0807 60.3753C14.0801 60.4173 14.034 60.4786 13.9937 60.4955C13.9285 60.5228 13.8511 60.53 13.7788 60.5303C12.8034 60.5339 11.8278 60.5355 10.8524 60.5355C10.7795 60.5355 10.7007 60.5361 10.6353 60.5101C10.5726 60.4853 10.5038 60.4364 10.4731 60.3792C10.4217 60.2833 10.3947 60.1736 10.3643 60.0678C9.9784 58.7241 9.59665 57.3795 9.20772 56.0366C9.0696 55.5594 8.91629 55.0868 8.76381 54.6141C8.75138 54.5757 8.69089 54.553 8.65277 54.5229C8.62929 54.5663 8.58565 54.6096 8.58509 54.6533C8.57791 55.2605 8.57515 55.868 8.57432 56.4755C8.57294 57.5983 8.57487 58.7213 8.57239 59.844C8.57073 60.575 8.5862 60.5286 7.86828 60.5325C7.13212 60.5364 6.39597 60.535 5.65954 60.535C5.53082 60.535 5.40182 60.5339 5.27337 60.5259C5.10902 60.5154 5.03278 60.4469 5.02615 60.2919C5.0162 60.0529 5.01427 59.8137 5.01427 59.5744C5.01344 56.8502 5.01372 54.1256 5.01372 51.4014H5.01399V51.4011ZM8.57294 48.4572H8.5746C8.5746 49.2109 8.57432 49.9642 8.57487 50.7179C8.57487 50.8649 8.5757 51.0121 8.58261 51.1588C8.59089 51.3356 8.64863 51.405 8.80608 51.4072C9.11822 51.4122 9.43174 51.4218 9.74277 51.4014C10.1281 51.3762 10.3864 51.127 10.4419 50.7433C10.4706 50.5441 10.4811 50.3405 10.4817 50.1388C10.4847 48.9075 10.4845 47.6762 10.4795 46.4446C10.4789 46.2808 10.4563 46.1148 10.424 45.954C10.3712 45.6913 10.1961 45.5318 9.93696 45.4937C9.53588 45.4343 9.1312 45.4343 8.73011 45.4981C8.67818 45.5064 8.6094 45.5901 8.59946 45.6476C8.57487 45.7913 8.57404 45.9399 8.57377 46.0863C8.57183 46.8767 8.57294 47.6668 8.57294 48.4572Z" fill="#1A2024"/>
<path d="M104.289 51.4409C104.289 48.7711 104.289 46.1012 104.291 43.4314C104.291 43.1557 104.303 42.8794 104.319 42.6043C104.327 42.4775 104.405 42.4103 104.536 42.3996C104.646 42.3904 104.756 42.3863 104.867 42.3863C105.714 42.3855 106.561 42.386 107.407 42.3863C107.481 42.3863 107.554 42.388 107.628 42.3932C107.826 42.4073 107.899 42.4739 107.911 42.6565C107.919 42.7664 107.919 42.8772 107.919 42.9877C107.922 45.2526 107.925 47.5171 107.928 49.7819C107.928 49.8551 107.933 49.9283 107.939 50.0016C107.94 50.0118 107.958 50.0278 107.97 50.0286C107.985 50.0297 108.01 50.0234 108.017 50.0121C108.043 49.9648 108.074 49.917 108.087 49.8654C108.355 48.8133 108.615 47.7591 108.888 46.7085C109.221 45.4261 109.562 44.1458 109.906 42.8659C110.025 42.4211 110.049 42.4043 110.513 42.4007C111.433 42.3935 112.354 42.3927 113.274 42.3938C113.401 42.3938 113.53 42.4098 113.654 42.4366C113.694 42.4451 113.749 42.5139 113.748 42.5537C113.745 42.6623 113.724 42.7725 113.695 42.8783C113.401 43.9618 113.105 45.0445 112.809 46.1272C112.406 47.6005 111.999 49.073 111.6 50.5475C111.443 51.1295 111.446 51.1329 111.593 51.7348C112.071 53.7019 112.553 55.668 113.035 57.6342C113.233 58.4384 113.441 59.2401 113.635 60.0452C113.757 60.5524 113.738 60.5748 113.213 60.5786C112.311 60.585 111.409 60.5836 110.507 60.5842C110.415 60.5842 110.322 60.5842 110.231 60.5723C110.035 60.5469 109.924 60.5309 109.857 60.2469C109.746 59.7813 109.615 59.3208 109.494 58.8578C109.025 57.0593 108.557 55.2605 108.086 53.4623C108.078 53.4295 108.052 53.3993 108.028 53.3731C108.022 53.3659 107.981 53.3731 107.978 53.3814C107.962 53.4311 107.941 53.483 107.941 53.5344C107.935 54.179 107.929 54.8232 107.928 55.4677C107.925 56.867 107.927 58.2666 107.924 59.6659C107.924 59.8866 107.915 60.1076 107.903 60.3281C107.895 60.4634 107.827 60.5369 107.704 60.5505C107.577 60.5646 107.448 60.5745 107.319 60.5751C106.491 60.5781 105.662 60.5778 104.834 60.5786C104.778 60.5786 104.723 60.5784 104.668 60.5756C104.365 60.5599 104.307 60.5074 104.291 60.2248C104.284 60.0963 104.285 59.967 104.285 59.8383C104.285 57.0394 104.285 54.2408 104.285 51.442H104.29L104.289 51.4409Z" fill="#1A2024"/>
<path d="M43.3874 60.553C42.9457 60.553 42.504 60.5549 42.0623 60.5518C41.9344 60.551 41.8032 60.5491 41.6797 60.5206C41.6203 60.5071 41.5659 60.4372 41.5269 60.3806C41.4977 60.338 41.4919 60.2767 41.4833 60.2225C41.4093 59.7501 41.3388 59.2772 41.2629 58.805C41.2397 58.6603 41.2068 58.5166 41.1706 58.3743C41.146 58.2782 41.0806 58.2174 40.977 58.2064C40.9405 58.2025 40.9038 58.1956 40.8673 58.1956C40.2416 58.1939 39.616 58.1901 38.9906 58.1942C38.8113 58.1953 38.7564 58.239 38.721 58.4083C38.6533 58.7324 38.5981 59.0589 38.5403 59.3846C38.4857 59.6927 38.437 60.0015 38.3801 60.309C38.3517 60.4629 38.2743 60.5242 38.1158 60.5372C38.0608 60.5416 38.0056 60.5436 37.9503 60.5436C37.0487 60.5427 36.1468 60.5422 35.2452 60.5386C35.1355 60.538 35.0239 60.53 34.9179 60.5057C34.8775 60.4966 34.8209 60.4303 34.8223 60.3916C34.8281 60.2272 34.8413 60.0615 34.872 59.8999C35.0513 58.9603 35.2358 58.0215 35.4192 57.0828C35.7051 55.6208 35.9932 54.1593 36.2775 52.6973C36.7128 50.4582 37.1465 48.2185 37.5791 45.9789C37.7744 44.9674 37.9639 43.9547 38.1589 42.9433C38.2793 42.3189 38.2401 42.3551 38.853 42.3545C39.6812 42.3534 40.5093 42.3545 41.3375 42.3567C41.4844 42.357 41.633 42.357 41.7772 42.3799C41.8374 42.3896 41.9112 42.4471 41.9383 42.5029C41.9858 42.6004 42.0098 42.7115 42.0297 42.8195C42.5153 45.4423 43.0028 48.0649 43.4815 50.6889C43.8216 52.5529 44.1473 54.4196 44.4834 56.2844C44.7022 57.4972 44.934 58.7075 45.1489 59.9209C45.2547 60.5179 45.3312 60.5599 44.6017 60.5474C44.197 60.5405 43.792 60.5463 43.3871 60.5463V60.553H43.3874ZM39.9185 55.218C40.1574 55.2042 40.359 55.1964 40.5599 55.1788C40.6389 55.1719 40.6919 55.1138 40.6958 55.0329C40.7005 54.9417 40.6999 54.8489 40.6878 54.7586C40.601 54.1033 40.5107 53.4482 40.4217 52.7932C40.3182 52.0291 40.2151 51.2649 40.111 50.501C40.0911 50.3554 40.069 50.2101 40.0433 50.0656C40.0397 50.0452 40.0104 50.0292 39.993 50.0109C39.987 50.0281 39.9795 50.0446 39.9754 50.0623C39.9712 50.08 39.9707 50.0988 39.9679 50.1168C39.8 51.2058 39.6298 52.2946 39.4649 53.3841C39.3826 53.9287 39.3083 54.4746 39.2342 55.0205C39.2235 55.1009 39.2704 55.1702 39.3508 55.1788C39.5511 55.2 39.753 55.2075 39.9179 55.218H39.9185Z" fill="#1A2024"/>
<path d="M126.826 60.922C125.464 60.922 124.102 60.9228 122.74 60.9212C122.556 60.9212 122.372 60.9129 122.189 60.8991C122.072 60.8903 121.992 60.8024 121.982 60.6792C121.971 60.551 121.967 60.422 121.967 60.2932C121.967 59.5937 121.975 58.894 121.968 58.1947C121.96 57.4836 122.122 56.8059 122.362 56.1454C122.806 54.9221 123.472 53.8228 124.286 52.8131C125.014 51.9103 125.78 51.0395 126.569 50.1891C126.82 49.9195 127.067 49.646 127.299 49.36C127.649 48.9266 127.917 48.4462 128.04 47.8953C128.146 47.4218 128.142 46.9413 128.07 46.4678C127.978 45.8537 127.553 45.5042 126.926 45.4802C126.277 45.4553 125.772 45.7885 125.618 46.3568C125.58 46.4971 125.577 46.6474 125.563 46.7935C125.531 47.1212 125.497 47.1552 125.155 47.1709C125.026 47.177 124.897 47.1764 124.768 47.1759C124.032 47.1726 123.296 47.1693 122.56 47.1629C122.45 47.1621 122.339 47.1546 122.233 47.1314C122.188 47.1217 122.138 47.0695 122.121 47.0251C122.096 46.9582 122.086 46.8803 122.091 46.8085C122.168 45.8053 122.369 44.8398 122.96 43.9958C123.637 43.0275 124.551 42.4305 125.724 42.247C126.532 42.1208 127.346 42.1194 128.144 42.2667C130.207 42.6471 131.438 44.1917 131.65 45.9606C131.715 46.5068 131.743 47.0601 131.683 47.6138C131.596 48.4296 131.367 49.1973 130.967 49.9162C130.508 50.7403 129.963 51.4983 129.329 52.1978C128.575 53.03 127.833 53.8723 127.102 54.7243C126.803 55.0724 126.533 55.4473 126.278 55.8293C126 56.2471 125.84 56.7186 125.755 57.2143C125.728 57.3709 125.793 57.4582 125.958 57.4687C126.142 57.4806 126.326 57.4828 126.51 57.4828C128.038 57.4833 129.566 57.4833 131.093 57.4817C131.821 57.4809 131.789 57.4549 131.787 58.1721C131.784 58.8901 131.783 59.6078 131.78 60.3258C131.779 60.4361 131.777 60.5469 131.768 60.6568C131.757 60.8054 131.683 60.8786 131.519 60.8955C131.373 60.9104 131.226 60.9187 131.079 60.9198C130.25 60.9253 129.422 60.9287 128.594 60.9309C128.005 60.9325 127.415 60.9311 126.827 60.9311V60.922H126.826Z" fill="#1A2024"/>
<path d="M94.0673 51.4832C94.0673 48.7396 94.0637 45.996 94.0692 43.2524C94.0711 42.2744 93.9758 42.388 94.9172 42.3855C97.0345 42.3797 99.1518 42.3819 101.269 42.3811C101.398 42.3811 101.527 42.3811 101.656 42.3877C101.789 42.3946 101.854 42.4579 101.868 42.5927C101.88 42.7209 101.89 42.8496 101.89 42.9783C101.894 43.6781 101.895 44.3776 101.896 45.0774C101.896 45.1512 101.896 45.2249 101.891 45.2981C101.873 45.5982 101.817 45.6598 101.535 45.6705C101.351 45.6777 101.167 45.6733 100.983 45.6736C100.136 45.6747 99.2889 45.6752 98.4419 45.6769C98.3132 45.6769 98.1839 45.6783 98.0555 45.6863C97.7875 45.7026 97.7364 45.7532 97.7171 46.0137C97.7102 46.1054 97.7066 46.1977 97.7069 46.2897C97.708 47.3392 97.7096 48.3887 97.7124 49.4383C97.7124 49.53 97.7171 49.6225 97.7301 49.7131C97.7442 49.8131 97.8058 49.8825 97.9085 49.8905C98.0734 49.9035 98.2392 49.9104 98.4044 49.9109C98.9936 49.9126 99.5828 49.9093 100.172 49.9109C100.319 49.9112 100.466 49.9173 100.613 49.9311C100.732 49.9424 100.805 50.0278 100.82 50.1516C100.822 50.1698 100.826 50.1883 100.826 50.2065C100.826 51.0718 100.828 51.9371 100.824 52.8023C100.823 52.959 100.743 53.0319 100.582 53.0427C100.435 53.0524 100.288 53.0513 100.141 53.0521C99.5148 53.0559 98.8892 53.0582 98.2632 53.0631C98.153 53.064 98.0425 53.072 97.9328 53.0841C97.8188 53.0968 97.7376 53.183 97.726 53.3049C97.7138 53.433 97.7061 53.5621 97.7058 53.6905C97.7033 54.7401 97.7 55.7896 97.7033 56.8391C97.705 57.3389 97.7235 57.3593 98.2428 57.3618C98.9422 57.3649 99.6419 57.3502 100.342 57.3483C100.783 57.3472 101.225 57.3521 101.666 57.3615C101.791 57.364 101.862 57.4466 101.878 57.5723C101.885 57.627 101.892 57.6823 101.892 57.7373C101.89 58.5105 101.887 59.2838 101.883 60.0571C101.883 60.1123 101.879 60.1676 101.874 60.2225C101.851 60.5132 101.806 60.5563 101.498 60.5701C101.388 60.5751 101.277 60.5728 101.166 60.5728C99.1411 60.574 97.116 60.5753 95.0907 60.5756C94.833 60.5756 94.5753 60.5748 94.3181 60.5629C94.1606 60.5557 94.0827 60.4726 94.0736 60.3206C94.0651 60.1736 94.0648 60.0264 94.0648 59.8791C94.0642 57.0803 94.0645 54.2815 94.0645 51.4826H94.0667L94.0673 51.4832Z" fill="#1A2024"/>
<path d="M83.8968 51.4229C83.8968 48.7727 83.8963 46.1222 83.8977 43.472C83.8977 43.1778 83.9062 42.8833 83.9178 42.5891C83.9225 42.4708 84.0104 42.3943 84.1366 42.3888C84.2835 42.3824 84.4308 42.3833 84.578 42.383C86.7309 42.3783 88.8842 42.3741 91.0371 42.37C91.1473 42.37 91.2581 42.3697 91.368 42.3769C91.5564 42.3893 91.628 42.4614 91.6426 42.6512C91.6498 42.743 91.6509 42.835 91.6512 42.9269C91.6536 43.6265 91.6564 44.3257 91.6561 45.0252C91.6561 45.1722 91.6506 45.32 91.6329 45.4656C91.6208 45.565 91.5462 45.6319 91.4476 45.6418C91.2835 45.6581 91.1178 45.6647 90.9526 45.6658C90.0324 45.6719 89.1123 45.6741 88.1922 45.6799C88.0267 45.681 87.861 45.6874 87.6961 45.7004C87.5643 45.7106 87.49 45.7838 87.4801 45.9054C87.471 46.0153 87.4674 46.1258 87.4674 46.2361C87.4668 47.285 87.4677 48.3343 87.4682 49.3833C87.4682 49.42 87.4679 49.457 87.4688 49.4938C87.4787 49.8537 87.5008 49.8783 87.837 49.8888C87.9472 49.8924 88.0577 49.8908 88.1682 49.891C88.8123 49.8927 89.4562 49.8938 90.1004 49.8957C90.2106 49.896 90.3214 49.8966 90.4313 49.9046C90.5471 49.9129 90.6305 50.0002 90.6457 50.1173C90.6482 50.1355 90.6509 50.154 90.6509 50.1723C90.649 51.037 90.6504 51.902 90.6424 52.7667C90.6407 52.9468 90.549 53.0255 90.3565 53.0278C89.7126 53.0352 89.0684 53.0325 88.4242 53.0394C88.1853 53.0418 87.9461 53.054 87.708 53.0728C87.5547 53.0849 87.4903 53.1651 87.4793 53.3283C87.4732 53.4201 87.4721 53.5123 87.4721 53.6043C87.4712 54.7086 87.4707 55.8128 87.4707 56.9173C87.4707 56.9908 87.4726 57.0645 87.4784 57.1378C87.4884 57.2629 87.5588 57.3397 87.69 57.3463C87.8919 57.3563 88.0944 57.356 88.2966 57.3555C89.2535 57.3519 90.2103 57.3463 91.1669 57.3433C91.2584 57.343 91.3506 57.3508 91.4415 57.3632C91.5564 57.3787 91.631 57.4635 91.6431 57.5895C91.652 57.6809 91.6561 57.7729 91.6561 57.8649C91.6567 58.6011 91.6556 59.3374 91.6548 60.0733C91.6548 60.1468 91.6536 60.2206 91.6484 60.2941C91.6346 60.4886 91.5691 60.5557 91.378 60.5692C91.2863 60.5759 91.194 60.5759 91.1023 60.5759C88.9676 60.577 86.8329 60.5811 84.6982 60.5764C83.7957 60.5745 83.8977 60.6057 83.896 59.7609C83.8899 56.9817 83.8938 54.2027 83.8938 51.4235H83.8954L83.8968 51.4229Z" fill="#1A2024"/>
<path d="M16.6153 51.4155C16.6153 48.7103 16.615 46.0051 16.6158 43.2996C16.6158 43.0604 16.6197 42.8211 16.6305 42.5822C16.6371 42.4308 16.7175 42.3589 16.8791 42.349C17.0075 42.3413 17.1365 42.3404 17.2652 42.3404C19.3997 42.3399 21.5341 42.3396 23.6688 42.3402C24.2887 42.3402 24.2936 42.3415 24.297 42.933C24.3011 43.6323 24.2961 44.3315 24.2931 45.031C24.2925 45.1412 24.2873 45.2517 24.2765 45.3614C24.2644 45.4857 24.1851 45.5694 24.0677 45.5774C23.921 45.5874 23.7738 45.5893 23.6265 45.5899C22.7064 45.5921 21.7866 45.5929 20.8665 45.5943C20.793 45.5943 20.7192 45.5935 20.6457 45.5951C20.2212 45.6045 20.1977 45.6189 20.1958 46.0239C20.1902 47.1649 20.1919 48.3058 20.1927 49.4468C20.1927 49.5383 20.2024 49.6302 20.2151 49.7211C20.2267 49.8021 20.282 49.8543 20.3615 49.8595C20.5264 49.8706 20.6919 49.8758 20.8573 49.8764C21.5197 49.8783 22.1821 49.8764 22.8445 49.8792C22.9539 49.8797 23.0652 49.8869 23.1716 49.9098C23.2155 49.9192 23.2652 49.9717 23.2832 50.0162C23.31 50.0825 23.321 50.159 23.321 50.2314C23.3224 51.0411 23.3208 51.8506 23.3191 52.6603C23.3191 52.6971 23.3139 52.7338 23.3092 52.7703C23.2884 52.9388 23.2268 53.0059 23.0705 53.0153C22.9421 53.0231 22.813 53.0225 22.6843 53.0222C22.0404 53.0208 21.3963 53.0178 20.7524 53.0173C20.6239 53.0173 20.493 53.0128 20.3684 53.0371C20.311 53.0482 20.2416 53.1148 20.2209 53.172C20.1905 53.2551 20.1925 53.3524 20.1925 53.4438C20.1908 54.5848 20.1905 55.7258 20.1922 56.8667C20.1922 56.9579 20.1905 57.0563 20.2228 57.138C20.2447 57.1933 20.3204 57.2532 20.3795 57.2623C20.5239 57.2842 20.6725 57.2811 20.8195 57.2817C21.7396 57.2844 22.6595 57.2845 23.5796 57.2872C23.7451 57.2878 23.9108 57.2922 24.0757 57.3035C24.1967 57.3118 24.2804 57.3919 24.2812 57.5196C24.287 58.4578 24.2887 59.3959 24.2867 60.3341C24.2867 60.4493 24.1942 60.5242 24.0652 60.5322C23.9368 60.5402 23.8078 60.5424 23.679 60.5424C21.5628 60.5419 19.4469 60.5408 17.3307 60.5389C17.1653 60.5389 16.9995 60.5344 16.8343 60.5242C16.7202 60.5173 16.6379 60.4286 16.631 60.3043C16.6208 60.1206 16.6161 59.9366 16.6161 59.7526C16.6153 56.9737 16.6156 54.195 16.6153 51.416V51.4155Z" fill="#1A2024"/>
<path d="M28.6279 53.091C28.6279 51.2679 28.629 49.4449 28.627 47.6221C28.6265 47.1251 28.6176 46.6278 28.6099 46.1308C28.6082 46.0206 28.5986 45.91 28.5845 45.8009C28.5696 45.6852 28.4853 45.6098 28.3572 45.6053C28.1364 45.5976 27.9155 45.5987 27.6948 45.5968C27.3083 45.5935 26.9216 45.5962 26.5351 45.586C26.3498 45.581 26.2827 45.5012 26.2666 45.3064C26.2592 45.2147 26.2556 45.1224 26.2559 45.0307C26.2575 44.3309 26.26 43.6311 26.2639 42.9316C26.2644 42.8214 26.2705 42.7106 26.2807 42.6007C26.2957 42.4402 26.3694 42.3628 26.518 42.352C26.628 42.344 26.7387 42.3424 26.8489 42.3424C29.261 42.3437 31.6727 42.3457 34.0848 42.3476C34.1768 42.3476 34.269 42.3468 34.3607 42.352C34.5577 42.3634 34.6223 42.4266 34.6372 42.6186C34.6417 42.6736 34.6436 42.7289 34.6436 42.7841C34.6458 43.5206 34.6494 44.2572 34.6475 44.9937C34.6472 45.1401 34.6375 45.289 34.6071 45.4316C34.595 45.4885 34.5215 45.5603 34.464 45.5738C34.3406 45.6023 34.2094 45.6031 34.0812 45.6048C33.5472 45.6109 33.0133 45.6103 32.4796 45.6183C32.2752 45.6214 32.2092 45.6827 32.1984 45.8761C32.1863 46.0965 32.1835 46.3178 32.1835 46.5386C32.1818 49.7242 32.1807 52.9098 32.1805 56.0957C32.1805 57.1637 32.1829 58.2318 32.184 59.2998C32.184 59.4656 32.1896 59.6316 32.1805 59.7968C32.1346 60.6295 32.2072 60.5286 31.4056 60.5375C30.6877 60.5455 29.9695 60.5397 29.2516 60.54C29.1778 60.54 29.1044 60.5402 29.0306 60.5375C28.6768 60.5242 28.6439 60.4952 28.6345 60.1629C28.6284 59.9421 28.6301 59.7208 28.6298 59.5001C28.629 57.5665 28.6287 55.6332 28.6281 53.6996C28.6281 53.4971 28.6281 53.2946 28.6281 53.0918L28.6279 53.091Z" fill="#1A2024"/>
<path d="M53.5607 51.4564C53.5607 48.7139 53.5558 45.9711 53.5635 43.2286C53.5663 42.2269 53.4878 42.3932 54.4273 42.3786C55.1631 42.367 55.8996 42.3769 56.6357 42.378C56.7462 42.378 56.8567 42.3777 56.9666 42.3844C57.081 42.3913 57.168 42.4772 57.1752 42.5993C57.1863 42.7827 57.1909 42.967 57.1912 43.1507C57.1932 47.329 57.194 51.5072 57.1959 55.6857C57.1959 56.1457 57.2009 56.6059 57.2084 57.0659C57.2106 57.1949 57.2882 57.2734 57.4108 57.2795C57.576 57.2875 57.7418 57.2886 57.9075 57.2886C58.6804 57.2886 59.4535 57.2864 60.2264 57.2875C60.3731 57.2875 60.5203 57.2955 60.6667 57.3088C60.7695 57.3182 60.8272 57.3897 60.8485 57.4867C60.8604 57.5403 60.8659 57.5961 60.8659 57.6511C60.867 58.516 60.8673 59.3813 60.8659 60.2463C60.8659 60.3007 60.8681 60.3654 60.8416 60.4074C60.8065 60.4629 60.7496 60.5275 60.6916 60.5408C60.5861 60.5648 60.4726 60.5563 60.3626 60.5565C58.3014 60.5612 56.2402 60.5654 54.1789 60.5695C54.1422 60.5695 54.1052 60.5698 54.0684 60.569C53.5886 60.556 53.5627 60.5355 53.5602 60.0706C53.5552 59.1318 53.5555 58.1931 53.5549 57.2543C53.5544 55.3216 53.5549 53.3888 53.5549 51.4564H53.5605H53.5607Z" fill="#1A2024"/>
<path d="M47.3557 51.4426C47.3557 48.6628 47.3552 45.8827 47.3568 43.1029C47.3568 42.9195 47.3684 42.7358 47.3817 42.5526C47.388 42.4645 47.4762 42.3902 47.5692 42.3824C47.6425 42.3764 47.7162 42.3739 47.7897 42.3739C48.6733 42.3739 49.5567 42.3744 50.4404 42.375C50.5139 42.375 50.5876 42.3753 50.6611 42.3797C50.8569 42.3916 50.926 42.4512 50.9393 42.6446C50.9531 42.8463 50.9575 43.0491 50.9578 43.2516C50.9591 48.5904 50.9603 53.9292 50.9583 59.2683C50.9583 59.636 50.9382 60.004 50.9216 60.3717C50.9169 60.475 50.8423 60.5391 50.7442 60.548C50.726 60.5496 50.7078 60.553 50.6895 60.553C49.7139 60.5507 48.7385 60.5485 47.7629 60.5449C47.6897 60.5447 47.6148 60.5397 47.5438 60.5239C47.4458 60.5021 47.3875 60.4344 47.3734 60.3333C47.3659 60.2789 47.3599 60.2236 47.3585 60.1687C47.3552 60.0399 47.3535 59.9109 47.3535 59.7822C47.3535 57.0024 47.3535 54.2223 47.3535 51.4423H47.356L47.3557 51.4426Z" fill="#1A2024"/>
<path d="M118.44 48.7573C117.998 48.7573 117.556 48.7603 117.115 48.7553C116.993 48.7539 116.912 48.6534 116.925 48.5327C116.944 48.3683 116.962 48.2028 116.997 48.0415C117.344 46.4416 117.686 44.8406 118.047 43.2438C118.26 42.3012 118.138 42.4297 119.069 42.4056C119.381 42.3976 119.694 42.3891 120.007 42.3869C120.116 42.386 120.227 42.3968 120.335 42.4134C120.437 42.4288 120.498 42.5032 120.509 42.6007C120.522 42.7095 120.523 42.8214 120.516 42.9308C120.458 43.7381 120.4 44.5456 120.335 45.3526C120.283 45.9943 120.222 46.6355 120.163 47.2767C120.126 47.6798 120.088 48.0829 120.045 48.4851C120.024 48.6771 119.952 48.7545 119.764 48.7581C119.323 48.7666 118.882 48.7608 118.44 48.7608C118.44 48.7597 118.44 48.7584 118.44 48.7573H118.44Z" fill="#1A2024"/>
</g>
<defs>
<clipPath id="clip0_247_1402">
<rect width="145.354" height="61.1874" fill="white"/>
</clipPath>
</defs>
</svg>
