<?xml version="1.0" encoding="utf-8"?>
<!-- Generator: Adobe Illustrator 22.1.0, SVG Export Plug-In . SVG Version: 6.00 Build 0)  -->
<svg version="1.1" id="Layer_1" xmlns="http://www.w3.org/2000/svg" xmlns:xlink="http://www.w3.org/1999/xlink" x="0px" y="0px"
	 viewBox="0 0 1916.4 380.3" style="enable-background:new 0 0 1916.4 380.3;" xml:space="preserve">
<style type="text/css">
	.st0{fill:#FFFFFF;}
	.st1{fill:#1A2024;}
	.st2{opacity:0.25;fill:#1A2024;enable-background:new    ;}
	.st3{opacity:0.45;fill:#1A2024;enable-background:new    ;}
	.st4{opacity:0.15;fill:#1A2024;enable-background:new    ;}
	.st5{fill:none;stroke:#1A2024;stroke-width:5;stroke-miterlimit:10;}
</style>
<rect x="-0.9" class="st0" width="1917.4" height="380.3"/>
<path class="st1" d="M125.6,308.3H70.2V72.5l0,0v-0.1c0.1-0.2,0.2-0.5,27.8-1.8c13.6-0.6,27.4-1.2,27.5-1.2h0.1V308.3z M70.3,308.1
	h55V69.7c-18.5,0.7-53.5,2.2-55,2.8V308.1z"/>
<path class="st1" d="M125.8,308.5H69.9V72.4c0.1-0.3,0.3-0.7,28-1.9c11.8-0.5,23.9-1,27.3-1.2h0.5v239.2H125.8z M70.6,307.9h54.6
	v-238c-20.9,0.8-52,2.2-54.6,2.8V307.9z"/>
<path class="st1" d="M153.4,309.5h-28v-240l28,4.3V309.5z M125.5,309.3h27.7V74l-27.7-4.3V309.3z"/>
<path class="st1" d="M153.8,309.9h-28.9V69l28.9,4.5V309.9z M126,308.9h26.8V74.4L126,70.2V308.9z"/>
<path class="st1" d="M153.6,309.7h-28.5V69.3l28.5,4.4V309.7z M125.8,309.1H153V74.2L125.8,70V309.1z"/>
<path class="st1" d="M154,310.1h-29.3V68.8l29.3,4.5V310.1z M126.2,308.7h26.4V74.6l-26.4-4.1C126.2,70.5,126.2,308.7,126.2,308.7z"
	/>
<path class="st1" d="M227.1,309.9V76.7h0.1l55.8-3.4v236.3h-0.1L227.1,309.9z M227.3,76.9v232.8l55.5-0.3V73.6L227.3,76.9z"/>
<path class="st1" d="M226.7,310.4v-234h0.5l56.2-3.4v237h-0.5L226.7,310.4z M227.7,77.3v232l54.6-0.3V74L227.7,77.3z"/>
<path class="st1" d="M226.9,310.1V76.5h0.3l56-2.9v236.1h-0.3L226.9,310.1z M227.5,77.1v232.4l55.1-0.3V73.8L227.5,77.1z"/>
<path class="st1" d="M226.5,310.6V76.1h0.7l56.5-2.9v237H283L226.5,310.6z M228,77.6v231.5l54.2-0.3V74.2L228,77.6z"/>
<path class="st1" d="M308.5,308.3h-25.6v-235h0.1l25.5,4.8V308.3z M283,308.1h25.3V78.3L283,73.6V308.1z"/>
<path class="st1" d="M308.7,308.5h-26.1V73.1l0.4,0.1l25.7,4.8V308.5z M283.2,307.9H308V78.5l-24.8-4.7V307.9z"/>
<path class="st1" d="M283.1,308.3h-21.8v-0.1l-109-235.8l21.9,3.5l0,0L283.1,308.3z M261.4,308.1h21.4l-108.7-232l-21.4-3.4
	L261.4,308.1z"/>
<path class="st1" d="M283.7,308.8H261l-0.1-0.3L151.6,71.9l22.9,3.7l0.1,0.2L283.7,308.8z M261.7,307.8h20.5L173.8,76.5l-20.4-3.3
	L261.7,307.8z"/>
<path class="st1" d="M283.4,308.5h-22.3l-0.1-0.2L151.9,72.2l22.4,3.6l0.1,0.1L283.4,308.5z M261.5,307.9h20.9L173.9,76.3L153,73
	L261.5,307.9z"/>
<path class="st1" d="M284.1,309h-23.2l-0.2-0.4L151.2,71.7l23.4,3.8l0.1,0.3L284.1,309z M261.8,307.5h20L173.6,76.7l-20-3.2
	L261.8,307.5z"/>
<path class="st1" d="M262.6,309.9h-55.8v-0.1L93.6,70.9h0.2l31.7-1.3l27.9,4.3l0,0L262.6,309.9z M207,309.7h55.3L153.2,74l-27.8-4.3
	l-31.6,1.4L207,309.7z"/>
<path class="st1" d="M263.3,310.4h-56.7l-0.1-0.2L92.9,70.5h0.8l31.7-1.3l28.2,4.4l0.1,0.2L263.3,310.4z M207.3,309.4h54.4L153,74.4
	l-27.6-4.3l-30.9,1.3L207.3,309.4z"/>
<path class="st1" d="M262.9,310.1h-56.2l-0.1-0.2L93.3,70.7h0.5l31.7-1.3l28.1,4.3l0.1,0.1L262.9,310.1z M207.1,309.5H262
	L153.1,74.2l-27.7-4.3l-31.2,1.3L207.1,309.5z"/>
<path class="st1" d="M263.6,310.6h-57.1l-0.2-0.4L92.6,70.3h1.1l31.7-1.3l28.4,4.4l0.2,0.3L263.6,310.6z M207.4,309.1h54L152.8,74.6
	l-27.5-4.3l-30.5,1.3L207.4,309.1z"/>
<path class="st1" d="M242.2,309.9h-15.1V76.7h0.1l15-0.9V309.9z M227.3,309.7H242V76l-14.7,0.9V309.7z"/>
<path class="st1" d="M242.6,310.4h-15.9v-234l15.9-1V310.4z M227.8,309.4h13.8V76.5l-13.8,0.8V309.4z"/>
<path class="st1" d="M242.4,310.1h-15.5V76.5h0.3l15.2-0.7V310.1z M227.5,309.5h14.2V76.2l-14.2,0.9V309.5z"/>
<path class="st1" d="M242.8,310.6h-16.3V76.1h0.7l15.6-0.7V310.6z M228,309.1h13.4V76.7L228,77.5V309.1z"/>
<polygon class="st1" points="134.1,309.7 153.2,309.7 153.2,188.9 143.8,110 143.7,110.2 153,188.9 153,309.5 134.4,309.5 
	134.4,84.4 134.1,82.2 "/>
<polygon class="st1" points="153.6,310.1 133.7,310.1 133.7,82.2 134.6,82.2 134.8,84.4 134.8,309.1 152.6,309.1 152.6,188.9 
	143.2,110.1 144.1,108.8 153.6,188.9 "/>
<polygon class="st1" points="153.6,188.6 144.2,109.4 144,109.7 153.4,188.6 153.4,309.3 133.9,309.3 133.9,81.2 134.1,81.1 
	134.3,80.9 133.7,81 133.7,309.5 153.6,309.5 "/>
<polygon class="st1" points="154,309.9 133.3,309.9 133.3,80.6 135.2,80.4 134.4,81.5 134.4,308.9 153,308.9 153,188.6 143.6,109.6 
	144.4,108.3 154,188.6 "/>
<polygon class="st1" points="153.2,188.7 153.2,309.3 134.1,309.3 134.1,82.2 134.1,81.1 133.9,81.2 133.9,309.5 153.4,309.5 
	153.4,188.7 144,109.7 143.8,109.9 "/>
<polygon class="st1" points="153.8,309.9 133.5,309.9 133.5,80.8 134.6,80.7 134.6,82.2 134.6,308.9 152.8,308.9 152.8,188.8 
	143.4,109.8 144.3,108.6 153.8,188.7 "/>
<path class="st1" d="M75.6,76.6L75.6,76.6L75.6,76.6L70,72.4h0.3l55.2-2.8l28.3,4.4l-28.3,2.7L75.6,76.6L75.6,76.6z M75.6,76.4h49.8
	l26.7-2.5l-26.7-4.2l-54.9,2.8L75.6,76.4z"/>
<path class="st1" d="M75.6,77h-0.2l-6.7-5l56.7-2.9L157,74l-31.6,3H75.6z M75.8,76h49.6l23.3-2.2l-23.4-3.6L71.6,73L75.8,76z"/>
<path class="st1" d="M75.6,76.8L75.6,76.8h-0.2l-6.1-4.6h0.8l55.2-2.8l30,4.6l-29.9,2.8H75.6z M75.8,76.2h49.7l25-2.4l-25.1-3.9
	l-54.3,2.8L75.8,76.2z"/>
<path class="st1" d="M75.6,77.2h-0.2l-0.1-0.1l-7.1-5.3l57.3-3l33.3,5.2l-33.3,3.2L75.6,77.2z M75.9,75.8h49.6l21.6-2.1l-21.7-3.4
	L72.3,73L75.9,75.8z"/>
<path class="st1" d="M86.2,308.3h-16V72.4h16V308.3z M70.3,308.1H86V72.6H70.3V308.1z"/>
<path class="st1" d="M86.6,308.8H69.7V72h16.9V308.8z M70.8,307.8h14.8V73H70.8V307.8z"/>
<path class="st1" d="M86.4,308.5H69.9V72.2h16.5V308.5z M70.6,307.9h15.2V72.8H70.6V307.9z"/>
<path class="st1" d="M86.8,309H69.5V71.8h17.3V309z M71,307.5h14.4V73.2H71V307.5z"/>
<path class="st1" d="M242.1,80.8L242.1,80.8l-12-4l52.9-3.4l0,0l23.4,5L242.1,80.8z M231.1,76.9l11,3.7l62.7-2.4L283,73.6
	L231.1,76.9z"/>
<path class="st1" d="M242,81.2l-14.1-4.7L283,73h0.1l26.7,5.7L242,81.2z M233.2,77.2l8.9,3l59.2-2.2l-18.4-4L233.2,77.2z"/>
<path class="st1" d="M242.1,81L242.1,81L229,76.7l1.1-0.1l52.8-3l0,0l21.9,5L242.1,81z M232.2,77l10,3.3l60.9-2.3l-20.2-3.3
	L232.2,77z"/>
<path class="st1" d="M242,81.4l-0.1-0.1l-15-5l3.2-0.2l52.8-3h0.1l17.8,4.1l2.4,0.4v0.2l4.8,1.1L242,81.4z M234.5,77.3l7.8,2.6
	l56.7-2.1l-16.1-2.6L234.5,77.3z M282.8,74l-29.5,1.7l29.6-1.3l4.8,0.8L282.8,74z"/>
<path class="st1" d="M308.5,308.3h-18V78.8h0.1l17.9-0.7V308.3z M290.7,308.1h17.6V78.4L290.7,79V308.1z"/>
<path class="st1" d="M308.9,308.8h-18.8V78.4l18.8-0.7V308.8z M291.1,307.8h16.7v-229l-16.7,0.6V307.8z"/>
<path class="st1" d="M308.7,308.5h-18.4V78.6l18.4-0.6V308.5z M290.9,307.9H308V78.6l-17.1,0.6V307.9z"/>
<path class="st1" d="M309.1,309h-19.2V78.2l19.2-0.7V309z M291.3,307.5h16.3V79l-16.3,0.6V307.5z"/>
<path class="st1" d="M127.4,310.2H68.3V70.6l59.1-3.1V310.2z M72.2,306.3h51.3V71.7l-51.3,2.7V306.3z"/>
<path class="st1" d="M310.3,310.2l-50,0.4L152.6,77l-25.2-4.9v-4.5l27.2,4.6l107.9,234.1H281l1.2-233.1l28.1,4.3L310.3,310.2z
	 M284.9,306.3h21.5V80.8l-20.3-3.1L284.9,306.3z"/>
<rect x="155" y="57.8" transform="matrix(0.902 -0.4318 0.4318 0.902 -66.9657 85.6308)" class="st1" width="0.2" height="265"/>
<polygon class="st1" points="212,310.4 211.8,310.1 97.2,70.6 98.1,70.2 98.3,70.6 212.9,310 "/>
<polygon class="st1" points="212,310 97.5,70.7 98,70.5 98.1,70.6 212.6,309.9 "/>
<polygon class="st1" points="211.8,310.4 96.9,70.5 98.2,69.9 98.5,70.5 213.3,310.2 "/>
<rect x="202.2" y="299.8" class="st1" width="76.8" height="0.2"/>
<rect x="201.8" y="299.4" class="st1" width="77.7" height="1"/>
<rect x="202" y="299.6" class="st1" width="77.3" height="0.6"/>
<rect x="201.6" y="299.2" class="st1" width="78.1" height="1.5"/>
<rect x="230.6" y="76.8" class="st1" width="0.2" height="233"/>
<rect x="230.2" y="76.4" class="st1" width="1" height="233.9"/>
<rect x="230.4" y="76.6" class="st1" width="0.6" height="233.4"/>
<rect x="230" y="76.2" class="st1" width="1.4" height="234.3"/>
<rect x="246.2" y="80.7" class="st1" width="0.2" height="229.1"/>
<rect x="245.8" y="80.2" class="st1" width="1" height="229.9"/>
<rect x="246" y="80.5" class="st1" width="0.6" height="229.5"/>
<rect x="245.6" y="80" class="st1" width="1.4" height="230.3"/>
<polygon class="st1" points="279,306.9 170.1,75.6 170.3,75.5 279.1,306.8 "/>
<polygon class="st1" points="278.8,307.4 278.6,307 169.6,75.4 170.5,75 170.7,75.3 279.7,307 "/>
<polygon class="st1" points="278.9,307.1 278.8,306.9 169.9,75.5 170.6,75.7 170.5,75.4 279.4,306.9 "/>
<polygon class="st1" points="278.7,307.7 278.4,307.1 169.1,74.9 170.7,75.3 170.7,75.3 170.9,75.2 170.9,75.3 280,307.1 "/>
<rect x="88.8" y="71.6" class="st1" width="0.2" height="236.7"/>
<rect x="88.3" y="71.1" class="st1" width="1" height="237.5"/>
<rect x="88.5" y="71.4" class="st1" width="0.6" height="237.1"/>
<rect x="88.1" y="70.9" class="st1" width="1.4" height="237.9"/>
<rect x="149.8" y="74.9" class="st1" width="0.2" height="234.5"/>
<rect x="149.4" y="74.4" class="st1" width="1" height="235.3"/>
<rect x="149.6" y="74.6" class="st1" width="0.6" height="234.9"/>
<rect x="149.2" y="74.2" class="st1" width="1.4" height="235.7"/>
<rect x="137.6" y="71.6" class="st1" width="0.2" height="237.9"/>
<rect x="137.2" y="71.1" class="st1" width="1" height="238.7"/>
<rect x="137.4" y="71.4" class="st1" width="0.6" height="238.3"/>
<rect x="137" y="70.9" class="st1" width="1.4" height="239.1"/>
<polygon class="st1" points="241.8,92.4 241.8,92.4 227,87.2 227,87 241.9,92.2 308.1,89.4 308.1,89.6 "/>
<polygon class="st1" points="241.8,92.8 241.7,92.7 226.4,87.5 226.8,86.5 241.9,91.7 308.5,89 308.6,90 "/>
<polygon class="st1" points="241.8,92.6 241.8,92.6 227,87.5 226.9,86.8 241.9,92 308.3,89.2 308.4,89.8 308.1,89.8 "/>
<polygon class="st1" points="241.7,93 241.6,92.9 226.6,87.8 226.4,86.2 242,91.5 308.7,88.8 308.8,90.2 308.2,90.3 "/>
<rect x="86.1" y="76.4" class="st1" width="39.7" height="0.2"/>
<rect x="85.9" y="76.2" class="st1" width="40.2" height="0.6"/>
<rect x="86.1" y="299.8" class="st1" width="67.2" height="0.2"/>
<rect x="85.7" y="299.4" class="st1" width="68.1" height="1"/>
<rect x="85.9" y="299.6" class="st1" width="67.6" height="0.6"/>
<rect x="85.5" y="299.2" class="st1" width="68.5" height="1.5"/>
<polygon class="st1" points="262,309.9 257,309.9 257,309.9 149.8,75 143.9,74.5 143.9,309.5 139.6,309.5 139.6,309.3 143.7,309.3 
	143.7,74.3 143.8,74.3 150,74.8 150,74.9 257.1,309.7 262,309.7 "/>
<polygon class="st1" points="262.4,310.4 256.7,310.4 256.6,310.1 149.6,75.4 144.3,74.9 144.3,309.9 139.2,309.9 139.2,308.9 
	143.3,308.9 143.3,73.8 143.8,73.9 150.2,74.4 150.3,74.7 257.4,309.3 262.4,309.3 "/>
<polygon class="st1" points="262.2,310.1 256.9,310.1 256.8,310 149.7,75.2 144.1,74.7 144.1,309.7 139.4,309.7 139.4,309.1 
	143.5,309.1 143.5,74.1 143.8,74.1 150.1,74.6 150.2,74.8 257.3,309.5 262.2,309.5 "/>
<polygon class="st1" points="262.6,310.6 256.6,310.6 256.4,310.1 149.4,75.6 144.5,75.2 144.5,310.1 139,310.1 139,308.7 
	143.1,308.7 143.1,73.6 143.8,73.6 150.4,74.2 150.6,74.6 257.5,309.1 262.6,309.1 "/>
<polygon class="st1" points="75.7,308.2 75.6,308.2 75.6,76.4 125.5,76.4 125.5,76.6 75.7,76.6 "/>
<polygon class="st1" points="76.2,308.6 75.1,308.6 75.1,76 125.9,76 125.9,77 76.2,77 "/>
<polygon class="st1" points="75.9,308.4 75.3,308.4 75.3,76.2 125.7,76.2 125.7,76.8 75.9,76.8 "/>
<polygon class="st1" points="76.4,308.9 74.9,308.9 74.9,75.8 126.1,75.8 126.1,77.2 76.4,77.2 "/>
<polygon class="st1" points="295.8,308.2 295.6,308.2 295.6,84.4 242.1,86.6 242.1,86.6 227.2,82 227.3,81.8 242.1,86.4 295.8,84.2 
	"/>
<polygon class="st1" points="296.2,308.6 295.1,308.6 295.1,84.9 242,87.1 241.9,87 226.7,82.3 227,81.3 242.2,86 296.2,83.8 "/>
<polygon class="st1" points="296,308.4 295.4,308.4 295.4,84.6 242.1,86.9 242,86.8 227.3,82.3 227.1,81.6 242.1,86.2 296,84 "/>
<polygon class="st1" points="296.4,308.9 294.9,308.9 294.9,85.1 242,87.3 241.9,87.2 227,82.6 226.5,80.9 242.2,85.8 296.4,83.6 
	"/>
<polygon class="st1" points="242,309.9 134,80.8 75.6,80.8 75.6,80.6 134.1,80.6 134.1,80.6 242.2,309.8 "/>
<polygon class="st1" points="241.8,310.4 241.6,310 133.7,81.2 75.2,81.2 75.2,80.1 134.4,80.1 134.5,80.4 242.7,310 "/>
<polygon class="st1" points="241.8,310 241.7,309.8 133.9,81 75.4,81 75.4,80.4 134.2,80.4 134.3,80.5 242.3,309.7 "/>
<polygon class="st1" points="241.6,310.5 241.3,309.9 133.6,81.4 75,81.4 75,79.9 134.5,79.9 134.7,80.3 242.9,309.9 "/>
<polygon class="st1" points="238.3,309.9 134,87.2 75.6,87.2 75.6,87 134.1,87 134.1,87 238.4,309.8 "/>
<polygon class="st1" points="238.1,310.4 237.9,310 133.7,87.6 75.2,87.6 75.2,86.5 134.4,86.5 134.5,86.8 239,310 "/>
<polygon class="st1" points="238.1,310 238,309.8 133.9,87.4 75.4,87.4 75.4,86.8 134.2,86.8 134.3,86.9 238.6,309.7 "/>
<polygon class="st1" points="237.9,310.5 237.6,310 133.6,87.8 75,87.8 75,86.3 134.5,86.3 134.7,86.8 239.2,309.9 "/>
<rect x="133.9" y="70.1" class="st1" width="0.2" height="17"/>
<rect x="133.5" y="69.7" class="st1" width="1" height="17.8"/>
<rect x="133.7" y="69.9" class="st1" width="0.6" height="17.4"/>
<rect x="133.3" y="69.5" class="st1" width="1.4" height="18.2"/>
<path class="st1" d="M385.1,134.7c2.8-3.2,4.3-7.3,4.3-11.6c0-4.2-1.5-8.2-3.9-10.6c-2.4-2.2-5.4-3.7-8.7-4.2l-3-0.6v-0.2l3-0.9
	c2.4-0.5,4.5-1.7,6.2-3.5c2.5-2.5,3.8-6,3.7-9.6c0-4.2-1.5-8.2-3.9-10.6c-3.8-3.8-9.4-4.3-13.9-4.3h-25.5v61.1H368
	C371.7,139.8,380.1,139.8,385.1,134.7z M348.6,105.2V82.8h19.3c4.5,0,8.4,1.2,10.6,3.3c2,2.2,3.1,5,3,8c0.1,3.2-1.1,6.3-3.3,8.6
	c-3.4,3.3-8.5,3.3-10.9,3.3h-18.7V105.2z M349.3,135.7h-0.8v-25.6h19.1c2.5,0,8.7,0.3,12,2.7c2.8,2,4.4,5.6,4.4,10
	c0,4-1.5,7.7-3.9,9.8s-6.7,3.1-12.4,3.1H349.3z"/>
<polygon class="st1" points="453,135.7 416.1,135.7 415.4,135.7 415.4,134.9 415.4,111 415.4,110.2 416.1,110.2 448.9,110.2 
	448.9,106.1 416.1,106.1 415.4,106.1 415.4,105.3 415.4,83.6 415.4,82.8 416.1,82.8 452,82.8 452,78.7 410.3,78.7 410.3,139.8 
	453,139.8 "/>
<path class="st1" d="M491.5,141.5c7.7,0,13.4-1.7,17.2-5.2c3.3-3,5.1-7.6,5.1-12.9c0.2-4.1-1.4-8.1-4.3-11
	c-3.5-3.3-8.9-4.9-16.1-6.3l-5.9-1.2c-4.1-0.8-8.8-2-11.5-4.8c-1.7-1.8-2.7-4.3-2.6-6.8c0-4.1,2.1-7.8,5.5-9.9
	c4-2.4,9.8-2.5,10.9-2.5c3.2,0,9.2,0.5,12.9,3.9c2.3,2.3,3.8,5.3,4.3,8.5h5.1c-0.5-4.1-2.3-8-5.1-10.9c-2.6-2.5-7.6-5.5-16.5-5.5
	c-3.6,0-10.3,0.5-15.2,3.6c-4.6,2.9-7.3,8-7.2,13.4c-0.1,3.5,1.2,6.8,3.5,9.4c3.7,4,9.8,5.5,15.3,6.5l6.3,1.2
	c2.7,0.5,9.3,1.9,12.4,5.2c4.3,4.9,3.9,12.4-0.7,16.9c-2.9,2.8-8,4.4-13.8,4.4c-6.2,0-11.9-2-15.1-5.3c-2.7-2.8-4.3-6.6-4.3-10.5
	h-5.2c0.1,5.1,2.1,10,5.6,13.6C477.4,140.8,485.3,141.5,491.5,141.5z"/>
<polygon class="st1" points="572,82.8 572,78.7 525.3,78.7 525.3,82.8 545.3,82.8 546.1,82.8 546.1,83.6 546.1,139.8 551.2,139.8 
	551.2,83.6 551.2,82.8 552,82.8 "/>
<path class="st1" d="M389.2,169c-3.4-3.2-9.6-7-19.7-7s-16.2,3.9-19.5,7.2c-2.7,2.7-8.9,10.5-8.9,25.2c0,15.1,6.1,22.8,8.7,25.4
	c4.8,4.6,11.5,7,20.1,7c5.4,0,13.2-0.7,19.4-6.9c3.4-3.3,9.1-10.9,9.1-25.6C398.5,180.5,393.5,172.9,389.2,169z M385.8,216.6
	c-4.2,4.2-9.9,6.4-15.9,6.2c-6.5,0-12.3-2.2-16.1-6.1c-4.6-4.7-7.2-12.6-7.2-21.8c0-13.8,5.1-20.6,8.2-23.4c3.9-3.5,9-5.3,15.1-5.3
	s11,1.7,14.8,5.2c3.1,2.8,8.3,9.6,8.3,23.3C393,204.2,390.6,211.6,385.8,216.6L385.8,216.6z"/>
<polygon class="st1" points="424,196.7 424,195.9 424.8,195.9 454,195.9 454,191.8 424.8,191.8 424,191.8 424,191 424,168.8 
	424,168 424.8,168 458.1,168 458.1,163.9 418.9,163.9 418.9,225 424,225 "/>
<polygon class="st1" points="509.5,195.9 509.5,191.8 480.2,191.8 479.4,191.8 479.4,191 479.4,168.8 479.4,168 480.2,168 
	513.5,168 513.5,163.9 474.4,163.9 474.4,225 479.4,225 479.4,196.7 479.4,195.9 480.2,195.9 "/>
<rect x="529.8" y="163.9" class="st1" width="5.1" height="61.1"/>
<path class="st1" d="M603.7,206.1c-0.4,4.4-2.4,8.5-5.6,11.5c-3.8,3.5-8.8,5.3-14,5.1c-7.8,0-12.6-3.2-15.3-5.9
	c-7.1-6.9-7.9-18.8-7.9-23.5c0-9.3,2.6-16.8,7.6-21.6c5.3-5.1,11.4-5.7,15.5-5.7c7.8,0,12.2,2.9,14.5,5.2c2.5,2.7,4.2,6.1,4.6,9.8
	h5.2c-0.4-4.8-2.4-9.3-5.8-12.7c-4.1-4-11.2-6.4-19.1-6.4s-14.5,2.5-19.5,7.4c-7,7-8.5,17.4-8.5,25c0,6,1.1,17.3,8.5,25
	c6.4,6.7,14,7.6,19.8,7.6s12.7-0.8,18.3-6.4c3.7-3.9,6.2-9,6.9-14.4L603.7,206.1z"/>
<polygon class="st1" points="633,220.9 633,220.1 633,196.1 633,195.4 633.8,195.4 666.5,195.4 666.5,191.3 633.8,191.3 633,191.3 
	633,190.5 633,168.8 633,168 633.8,168 669.6,168 669.6,163.9 628,163.9 628,225 670.7,225 670.7,220.9 633.8,220.9 "/>
<path class="st1" d="M359.1,249.1l-23.2,61.1h5.5l6.5-17.5l0.2-0.5h28.4l0.2,0.5l6.4,17.5h5.6l-23.2-61.1H359.1z M375,288h-25.6
	l0.4-1l11.7-32.6l0.7-2l0.7,2l11.7,32.6L375,288z"/>
<polygon class="st1" points="466.5,249.1 453,303 452.3,305.9 451.6,303 437.7,249.1 431.1,249.1 417.1,303 416.3,305.9 415.6,303 
	402.1,249.1 396.3,249.1 412.3,310.1 419.6,310.1 433.6,256 434.3,253.1 435,256 449,310.1 456.3,310.1 472.3,249.1 "/>
<path class="st1" d="M503.2,249.1l-23.2,61h5.5l6.5-17.5l0.2-0.5h28.3l0.2,0.5l6.4,17.5h5.6L509.5,249L503.2,249.1z M519.1,288
	h-25.6l0.4-1l11.7-32.6l0.7-2l0.7,2l11.7,32.6L519.1,288z"/>
<path class="st1" d="M591.9,302.3l-0.2-7.1v-0.3c-0.1-3.8-0.2-7.8-3.3-10.8c-1.4-1.4-3.2-2.4-5.1-2.9l-0.6-0.1l-2.2-0.6l2.2-0.7
	l0.6-0.1c2.6-0.7,5-2.2,6.8-4.3c2.4-2.8,3.6-6.2,3.6-10.6c0.2-4.1-1.3-8.1-4.1-11.1c-3.7-3.9-8.5-4.6-15.9-4.6h-25.8v61.1h5.1v-27.6
	h20.5c2.7,0,6.6,0.3,9.4,2.7c3.1,2.6,3.2,6,3.4,10v0.9l0.3,6.6c0.2,4.4,1.2,6.4,1.7,7.4h5.4c-1.2-2.3-1.9-4.9-1.8-7.5L591.9,302.3z
	 M573.1,278.5H553v-25.3h19.7c3,0,8.5,0,12,3.1c1.3,1.1,3.5,3.7,3.5,8.9c0,3.9-1.4,7.7-3.7,9.9S577.8,278.5,573.1,278.5z"/>
<path class="st1" d="M664.6,279.4c0-12.9-4.6-20-8.4-23.7c-6.2-5.9-13.4-6.7-20.3-6.7h-21.2v61.1H635c6.5,0,14.7-0.7,21-6.4
	C661.5,298.7,664.6,289.9,664.6,279.4z M652.4,300c-6.1,6-14.5,6-19.4,6h-13.2v-52.9h16c4.8,0,11.1,0.7,16.3,5.8
	c4.6,4.5,7.1,11.8,7.1,20.7C659.2,288.3,656.7,295.7,652.4,300z"/>
<path class="st1" d="M723.6,282.7c-3.5-3.3-8.9-4.9-16.1-6.3l-5.9-1.2c-4.2-0.8-8.8-2-11.5-4.8c-1.7-1.8-2.7-4.3-2.6-6.8
	c0-4.1,2.1-7.9,5.5-10c4-2.4,9.7-2.5,10.9-2.5c3.2,0,9.2,0.5,12.8,3.9c2.3,2.3,3.8,5.3,4.3,8.5h5.1c-0.5-4.1-2.3-7.9-5.2-10.9
	c-2.6-2.5-7.6-5.5-16.5-5.5c-3.6,0-10.3,0.5-15.2,3.6c-4.6,2.9-7.3,8-7.2,13.4c-0.1,3.5,1.1,6.8,3.5,9.4c3.7,4,9.8,5.5,15.3,6.5
	l6.3,1.2c2.7,0.5,9.3,1.9,12.4,5.2c4.2,5,3.9,12.3-0.7,16.9c-2.8,2.8-8,4.4-13.8,4.4c-6.2,0-11.9-2-15.1-5.3
	c-2.7-2.8-4.3-6.6-4.3-10.5h-5.2c0.1,5.1,2.1,10,5.6,13.6c5.6,5.6,13.5,6.3,19.7,6.3c7.7,0,13.4-1.7,17.2-5.2
	c3.3-3,5.1-7.6,5.1-12.9C728.2,289.6,726.6,285.6,723.6,282.7z"/>
<polygon class="st2" points="68.7,70.7 68.2,309.7 153.3,309.7 153.3,196.4 206.9,309.7 310,309.7 310,77 282.8,73.4 227.1,76.8 
	227.1,189 174.2,75.6 126.6,67.1 "/>
<polygon class="st2" points="72.4,74.3 75.5,76.6 75.5,305.8 72.4,305.8 "/>
<polygon class="st3" points="72.4,76.8 123.6,76.8 123.6,80.3 72.4,80.3 "/>
<polygon class="st3" points="86.5,73.5 88.7,73.5 88.7,305.8 86.5,305.8 "/>
<polygon class="st4" points="98.7,72.8 123.6,125.1 123.6,305.8 86.5,305.8 86.5,73.5 "/>
<polygon class="st4" points="138.2,77 138.2,88.4 138.2,309.3 149.3,309.3 149.3,77 "/>
<polygon class="st3" points="170.1,74.9 280.2,309.7 281.6,309.7 281.6,304.5 174.2,75.6 "/>
<polygon class="st4" points="153.3,77 177,81.7 174.2,75.6 149.3,71.5 "/>
<polygon class="st3" points="129.4,75.9 129.7,309.4 134.1,309.4 134.1,75.4 "/>
<polygon class="st4" points="246.2,87 246.2,309.3 281.6,309.3 283.4,85.1 "/>
<polygon class="st4" points="242,87 295.5,85.1 295.5,307.5 307.6,307.5 307.6,80.3 242,83.2 "/>
<polygon class="st4" points="202.2,299.5 278.6,299.5 284.7,305.6 284.7,309.3 206.9,309.3 "/>
<path class="st1" d="M1400,311.5h-42.1v-2.2c0-7.1,2.3-12.1,13.9-20c10.3-7.1,16-9.3,16-16.5c0-5.9-4.1-8.3-8.8-8.3
	c-5.7,0-9.4,3.5-9.4,9v2h-12v-1.6c0-7.9,4.3-19,21.9-19c2.6,0,20.6,0.2,20.6,17.3c0,7-2.7,13-15,20c-5.8,3.3-9.6,5.4-12,9.7h26.9
	V311.5z"/>
<path class="st1" d="M1411.8,284c0-28.5,18.3-29.1,22.3-29.1s22.3,0.6,22.3,29.1s-18.3,29.1-22.3,29.1S1411.8,312.5,1411.8,284z
	 M1444.1,284c0-8.2-0.6-19.5-9.9-19.5c-9.1,0-9.9,11.6-9.9,19.5s0.9,19.5,9.9,19.5C1443.4,303.5,1444.1,292.2,1444.1,284L1444.1,284
	z"/>
<path class="st1" d="M1510,311.5h-42.1v-2.2c0-7.1,2.3-12.1,13.9-20c10.3-7.1,16-9.3,16-16.5c0-5.9-4.1-8.3-8.8-8.3
	c-5.7,0-9.4,3.5-9.4,9v2h-12v-1.6c0-7.9,4.3-19,21.9-19c2.6,0,20.6,0.2,20.6,17.3c0,7-2.7,13-15,20c-5.8,3.3-9.6,5.4-12,9.7h26.9
	V311.5z"/>
<path class="st1" d="M1521.8,284c0-28.5,18.3-29.1,22.3-29.1s22.3,0.6,22.3,29.1s-18.3,29.1-22.3,29.1S1521.8,312.5,1521.8,284z
	 M1554.1,284c0-8.2-0.6-19.5-9.9-19.5c-9.1,0-9.9,11.6-9.9,19.5s0.9,19.5,9.9,19.5C1553.4,303.5,1554.1,292.2,1554.1,284L1554.1,284
	z"/>
<line class="st5" x1="1286.4" y1="69.2" x2="1286.4" y2="311.5"/>
<path class="st1" d="M1369.2,207.5h-5.8v-54.6h40.9v54.6h-5.8v-49.7h-29.3L1369.2,207.5L1369.2,207.5z"/>
<path class="st1" d="M1444,152.9c3.9,0,9.1,0,13.3,3.6c2.3,2,4.9,5.6,4.9,12.1s-2.6,10.1-4.4,11.9c-4.4,4.1-10.7,4.3-13.9,4.3h-15.3
	v22.8h-5.8V153h21.2L1444,152.9L1444,152.9z M1428.6,179.8h14.3c3,0,7.1-0.2,9.8-2.4c1.9-1.5,3.6-4.2,3.6-8.7c0-4.3-1.8-7.3-3.7-8.8
	c-2.5-1.9-6.3-2.1-9.7-2.1h-14.3L1428.6,179.8z"/>
<path class="st1" d="M1511.5,176.8v4.9h-29.2v20.9h32.8v4.9h-38.6v-54.6h37.7v4.9h-31.9v19L1511.5,176.8z"/>
<path class="st1" d="M1534.1,160.1L1534.1,160.1l0.1,2.1v45.3h-5.8v-54.6h8.7l18.3,47l18.4-47h8.7v54.6h-5.8v-45.3l0.2-2.1h-0.2
	l-18.7,47.4h-5L1534.1,160.1z"/>
<path class="st1" d="M1637.7,152.9h5.9v54.6h-5.8v-46.6l-31,46.6h-5.9v-54.6h5.8v46.3L1637.7,152.9z"/>
<path class="st1" d="M1698.9,152.9h5.9v54.6h-5.8v-46.6l-31,46.6h-5.9v-54.6h5.8v46.3L1698.9,152.9z"/>
<path class="st1" d="M1364.7,119.8c6.8,1.2,12.3-3.9,12.3-23.8V73.5h32.8v52.4h-7V79.4H1384v18.1c0,24.2-8.9,30.2-19.4,28.4
	L1364.7,119.8z"/>
<path class="st1" d="M1423.5,125.9h-7.6l19.8-52.4h7.5l19.8,52.4h-7.6l-4.9-13.6h-22.2L1423.5,125.9z M1448.6,106.4l-9.1-25.8
	l-9.1,25.8C1430.4,106.4,1448.6,106.4,1448.6,106.4z"/>
<path class="st1" d="M1499.7,73.5h7.4l-17.7,43c-4.2,10-9.1,10.1-13.3,10.1c-2,0.1-3.9-0.2-5.8-0.8v-6.1c1.6,0.6,3.3,0.8,4.9,0.8
	c2.9,0,6.1-0.5,8.2-7.7l-19.9-39.4h8.6l15,31.5L1499.7,73.5z"/>
<path class="st1" d="M1534.5,73.5c10.7,0,17.7,4.2,17.7,15c0,9.8-4.9,16.5-18.4,16.5h-13.6v20.9h-7V73.5H1534.5z M1520.2,99.1h12.9
	c8.4,0,12-3.5,12-10.4c0-6.5-3.9-9.3-12-9.3h-12.9V99.1z"/>
<path class="st1" d="M1595.5,95.9v5.9H1568V120h31.1v5.9H1561V73.5h37.3v5.9H1568v16.5H1595.5z"/>
<path class="st1" d="M1607.7,125.9h-7.6l19.9-52.4h7.5l19.8,52.4h-7.6l-4.9-13.6h-22.2L1607.7,125.9z M1632.8,106.4l-9.1-25.8
	l-9.1,25.8C1614.6,106.4,1632.8,106.4,1632.8,106.4z"/>
<path class="st1" d="M1646.1,79.4v-5.9h41.1v5.9h-17v46.5h-7V79.4H1646.1z"/>
</svg>
